# generated by tools/gen_models.py
mtllib snake_head.mtl
v 0.00000 0.00000 0.50000
v 0.00000 0.00000 0.50000
v 0.00000 0.00000 0.50000
v 0.00000 0.00000 0.50000
v 0.00000 0.00000 0.50000
v 0.00000 0.00000 0.50000
v 0.00000 0.00000 0.50000
v 0.00000 0.00000 0.50000
v 0.00000 0.00000 0.50000
v 0.00000 0.00000 0.50000
v 0.00000 0.00000 0.50000
v 0.00000 0.00000 0.50000
v 0.00000 0.00000 0.50000
v 0.00000 0.00000 0.50000
v 0.00000 0.00000 0.50000
v 0.00000 0.00000 0.50000
v 0.00000 0.00000 0.50000
v 0.00000 0.00000 0.50000
v 0.00000 0.00000 0.50000
v 0.00000 0.00000 0.50000
v 0.00000 0.00000 0.50000
v 0.00000 0.00000 0.50000
v 0.06008 0.00000 0.49398
v 0.05765 0.02257 0.49398
v 0.05054 0.04331 0.49398
v 0.03934 0.06054 0.49398
v 0.02496 0.07287 0.49398
v 0.00855 0.07929 0.49398
v -0.00855 0.07929 0.49398
v -0.02496 0.07287 0.49398
v -0.03934 0.06054 0.49398
v -0.05054 0.04331 0.49398
v -0.05765 0.02257 0.49398
v -0.06008 0.00000 0.49398
v -0.05765 -0.02257 0.49398
v -0.05054 -0.04331 0.49398
v -0.03934 -0.06054 0.49398
v -0.02496 -0.07287 0.49398
v -0.00855 -0.07929 0.49398
v 0.00855 -0.07929 0.49398
v 0.02496 -0.07287 0.49398
v 0.03934 -0.06054 0.49398
v 0.05054 -0.04331 0.49398
v 0.05765 -0.02257 0.49398
v 0.11715 0.00000 0.47623
v 0.11240 0.04401 0.47623
v 0.09855 0.08445 0.47623
v 0.07672 0.11805 0.47623
v 0.04867 0.14208 0.47623
v 0.01667 0.15461 0.47623
v -0.01667 0.15461 0.47623
v -0.04867 0.14208 0.47623
v -0.07672 0.11805 0.47623
v -0.09855 0.08445 0.47623
v -0.11240 0.04401 0.47623
v -0.11715 0.00000 0.47623
v -0.11240 -0.04401 0.47623
v -0.09855 -0.08445 0.47623
v -0.07672 -0.11805 0.47623
v -0.04867 -0.14208 0.47623
v -0.01667 -0.15461 0.47623
v 0.01667 -0.15461 0.47623
v 0.04867 -0.14208 0.47623
v 0.07672 -0.11805 0.47623
v 0.09855 -0.08445 0.47623
v 0.11240 -0.04401 0.47623
v 0.16834 0.00000 0.44764
v 0.16152 0.06324 0.44764
v 0.14162 0.12135 0.44764
v 0.11024 0.16963 0.44764
v 0.06993 0.20417 0.44764
v 0.02396 0.22217 0.44764
v -0.02396 0.22217 0.44764
v -0.06993 0.20417 0.44764
v -0.11024 0.16963 0.44764
v -0.14162 0.12135 0.44764
v -0.16152 0.06324 0.44764
v -0.16834 0.00000 0.44764
v -0.16152 -0.06324 0.44764
v -0.14162 -0.12135 0.44764
v -0.11024 -0.16963 0.44764
v -0.06993 -0.20417 0.44764
v -0.02396 -0.22217 0.44764
v 0.02396 -0.22217 0.44764
v 0.06993 -0.20417 0.44764
v 0.11024 -0.16963 0.44764
v 0.14162 -0.12135 0.44764
v 0.16152 -0.06324 0.44764
v 0.21109 0.00000 0.40964
v 0.20254 0.07930 0.40964
v 0.17758 0.15217 0.40964
v 0.13824 0.21271 0.40964
v 0.08769 0.25602 0.40964
v 0.03004 0.27859 0.40964
v -0.03004 0.27859 0.40964
v -0.08769 0.25602 0.40964
v -0.13824 0.21271 0.40964
v -0.17758 0.15217 0.40964
v -0.20254 0.07930 0.40964
v -0.21109 0.00000 0.40964
v -0.20254 -0.07930 0.40964
v -0.17758 -0.15217 0.40964
v -0.13824 -0.21271 0.40964
v -0.08769 -0.25602 0.40964
v -0.03004 -0.27859 0.40964
v 0.03004 -0.27859 0.40964
v 0.08769 -0.25602 0.40964
v 0.13824 -0.21271 0.40964
v 0.17758 -0.15217 0.40964
v 0.20254 -0.07930 0.40964
v 0.24326 0.00000 0.36413
v 0.23341 0.09138 0.36413
v 0.20464 0.17536 0.36413
v 0.15930 0.24513 0.36413
v 0.10105 0.29504 0.36413
v 0.03462 0.32105 0.36413
v -0.03462 0.32105 0.36413
v -0.10105 0.29504 0.36413
v -0.15930 0.24513 0.36413
v -0.20464 0.17536 0.36413
v -0.23341 0.09138 0.36413
v -0.24326 0.00000 0.36413
v -0.23341 -0.09138 0.36413
v -0.20464 -0.17536 0.36413
v -0.15930 -0.24513 0.36413
v -0.10105 -0.29504 0.36413
v -0.03462 -0.32105 0.36413
v 0.03462 -0.32105 0.36413
v 0.10105 -0.29504 0.36413
v 0.15930 -0.24513 0.36413
v 0.20464 -0.17536 0.36413
v 0.23341 -0.09138 0.36413
v 0.26323 0.00000 0.31341
v 0.25257 0.09888 0.31341
v 0.22144 0.18975 0.31341
v 0.17238 0.26525 0.31341
v 0.10935 0.31926 0.31341
v 0.03746 0.34740 0.31341
v -0.03746 0.34740 0.31341
v -0.10935 0.31926 0.31341
v -0.17238 0.26525 0.31341
v -0.22144 0.18975 0.31341
v -0.25257 0.09888 0.31341
v -0.26323 0.00000 0.31341
v -0.25257 -0.09888 0.31341
v -0.22144 -0.18975 0.31341
v -0.17238 -0.26525 0.31341
v -0.10935 -0.31926 0.31341
v -0.03746 -0.34740 0.31341
v 0.03746 -0.34740 0.31341
v 0.10935 -0.31926 0.31341
v 0.17238 -0.26525 0.31341
v 0.22144 -0.18975 0.31341
v 0.25257 -0.09888 0.31341
v 0.27000 0.00000 0.26000
v 0.25906 0.10142 0.26000
v 0.22714 0.19463 0.26000
v 0.17681 0.27207 0.26000
v 0.11216 0.32747 0.26000
v 0.03843 0.35634 0.26000
v -0.03843 0.35634 0.26000
v -0.11216 0.32747 0.26000
v -0.17681 0.27207 0.26000
v -0.22714 0.19463 0.26000
v -0.25906 0.10142 0.26000
v -0.27000 0.00000 0.26000
v -0.25906 -0.10142 0.26000
v -0.22714 -0.19463 0.26000
v -0.17681 -0.27207 0.26000
v -0.11216 -0.32747 0.26000
v -0.03843 -0.35634 0.26000
v 0.03843 -0.35634 0.26000
v 0.11216 -0.32747 0.26000
v 0.17681 -0.27207 0.26000
v 0.22714 -0.19463 0.26000
v 0.25906 -0.10142 0.26000
v 0.26323 0.00000 0.20659
v 0.25257 0.09888 0.20659
v 0.22144 0.18975 0.20659
v 0.17238 0.26525 0.20659
v 0.10935 0.31926 0.20659
v 0.03746 0.34740 0.20659
v -0.03746 0.34740 0.20659
v -0.10935 0.31926 0.20659
v -0.17238 0.26525 0.20659
v -0.22144 0.18975 0.20659
v -0.25257 0.09888 0.20659
v -0.26323 0.00000 0.20659
v -0.25257 -0.09888 0.20659
v -0.22144 -0.18975 0.20659
v -0.17238 -0.26525 0.20659
v -0.10935 -0.31926 0.20659
v -0.03746 -0.34740 0.20659
v 0.03746 -0.34740 0.20659
v 0.10935 -0.31926 0.20659
v 0.17238 -0.26525 0.20659
v 0.22144 -0.18975 0.20659
v 0.25257 -0.09888 0.20659
v 0.24326 0.00000 0.15587
v 0.23341 0.09138 0.15587
v 0.20464 0.17536 0.15587
v 0.15930 0.24513 0.15587
v 0.10105 0.29504 0.15587
v 0.03462 0.32105 0.15587
v -0.03462 0.32105 0.15587
v -0.10105 0.29504 0.15587
v -0.15930 0.24513 0.15587
v -0.20464 0.17536 0.15587
v -0.23341 0.09138 0.15587
v -0.24326 0.00000 0.15587
v -0.23341 -0.09138 0.15587
v -0.20464 -0.17536 0.15587
v -0.15930 -0.24513 0.15587
v -0.10105 -0.29504 0.15587
v -0.03462 -0.32105 0.15587
v 0.03462 -0.32105 0.15587
v 0.10105 -0.29504 0.15587
v 0.15930 -0.24513 0.15587
v 0.20464 -0.17536 0.15587
v 0.23341 -0.09138 0.15587
v 0.21109 0.00000 0.11036
v 0.20254 0.07930 0.11036
v 0.17758 0.15217 0.11036
v 0.13824 0.21271 0.11036
v 0.08769 0.25602 0.11036
v 0.03004 0.27859 0.11036
v -0.03004 0.27859 0.11036
v -0.08769 0.25602 0.11036
v -0.13824 0.21271 0.11036
v -0.17758 0.15217 0.11036
v -0.20254 0.07930 0.11036
v -0.21109 0.00000 0.11036
v -0.20254 -0.07930 0.11036
v -0.17758 -0.15217 0.11036
v -0.13824 -0.21271 0.11036
v -0.08769 -0.25602 0.11036
v -0.03004 -0.27859 0.11036
v 0.03004 -0.27859 0.11036
v 0.08769 -0.25602 0.11036
v 0.13824 -0.21271 0.11036
v 0.17758 -0.15217 0.11036
v 0.20254 -0.07930 0.11036
v 0.16834 0.00000 0.07236
v 0.16152 0.06324 0.07236
v 0.14162 0.12135 0.07236
v 0.11024 0.16963 0.07236
v 0.06993 0.20417 0.07236
v 0.02396 0.22217 0.07236
v -0.02396 0.22217 0.07236
v -0.06993 0.20417 0.07236
v -0.11024 0.16963 0.07236
v -0.14162 0.12135 0.07236
v -0.16152 0.06324 0.07236
v -0.16834 0.00000 0.07236
v -0.16152 -0.06324 0.07236
v -0.14162 -0.12135 0.07236
v -0.11024 -0.16963 0.07236
v -0.06993 -0.20417 0.07236
v -0.02396 -0.22217 0.07236
v 0.02396 -0.22217 0.07236
v 0.06993 -0.20417 0.07236
v 0.11024 -0.16963 0.07236
v 0.14162 -0.12135 0.07236
v 0.16152 -0.06324 0.07236
v 0.11715 0.00000 0.04377
v 0.11240 0.04401 0.04377
v 0.09855 0.08445 0.04377
v 0.07672 0.11805 0.04377
v 0.04867 0.14208 0.04377
v 0.01667 0.15461 0.04377
v -0.01667 0.15461 0.04377
v -0.04867 0.14208 0.04377
v -0.07672 0.11805 0.04377
v -0.09855 0.08445 0.04377
v -0.11240 0.04401 0.04377
v -0.11715 0.00000 0.04377
v -0.11240 -0.04401 0.04377
v -0.09855 -0.08445 0.04377
v -0.07672 -0.11805 0.04377
v -0.04867 -0.14208 0.04377
v -0.01667 -0.15461 0.04377
v 0.01667 -0.15461 0.04377
v 0.04867 -0.14208 0.04377
v 0.07672 -0.11805 0.04377
v 0.09855 -0.08445 0.04377
v 0.11240 -0.04401 0.04377
v 0.06008 0.00000 0.02602
v 0.05765 0.02257 0.02602
v 0.05054 0.04331 0.02602
v 0.03934 0.06054 0.02602
v 0.02496 0.07287 0.02602
v 0.00855 0.07929 0.02602
v -0.00855 0.07929 0.02602
v -0.02496 0.07287 0.02602
v -0.03934 0.06054 0.02602
v -0.05054 0.04331 0.02602
v -0.05765 0.02257 0.02602
v -0.06008 0.00000 0.02602
v -0.05765 -0.02257 0.02602
v -0.05054 -0.04331 0.02602
v -0.03934 -0.06054 0.02602
v -0.02496 -0.07287 0.02602
v -0.00855 -0.07929 0.02602
v 0.00855 -0.07929 0.02602
v 0.02496 -0.07287 0.02602
v 0.03934 -0.06054 0.02602
v 0.05054 -0.04331 0.02602
v 0.05765 -0.02257 0.02602
v 0.00000 0.00000 0.02000
v 0.00000 0.00000 0.02000
v 0.00000 0.00000 0.02000
v 0.00000 0.00000 0.02000
v 0.00000 0.00000 0.02000
v 0.00000 0.00000 0.02000
v -0.00000 0.00000 0.02000
v -0.00000 0.00000 0.02000
v -0.00000 0.00000 0.02000
v -0.00000 0.00000 0.02000
v -0.00000 0.00000 0.02000
v -0.00000 0.00000 0.02000
v -0.00000 -0.00000 0.02000
v -0.00000 -0.00000 0.02000
v -0.00000 -0.00000 0.02000
v -0.00000 -0.00000 0.02000
v -0.00000 -0.00000 0.02000
v 0.00000 -0.00000 0.02000
v 0.00000 -0.00000 0.02000
v 0.00000 -0.00000 0.02000
v 0.00000 -0.00000 0.02000
v 0.00000 -0.00000 0.02000
v -0.13000 0.16000 0.47500
v -0.13000 0.16000 0.47500
v -0.13000 0.16000 0.47500
v -0.13000 0.16000 0.47500
v -0.13000 0.16000 0.47500
v -0.13000 0.16000 0.47500
v -0.13000 0.16000 0.47500
v -0.13000 0.16000 0.47500
v -0.13000 0.16000 0.47500
v -0.13000 0.16000 0.47500
v -0.13000 0.16000 0.47500
v -0.13000 0.16000 0.47500
v -0.10130 0.16000 0.46929
v -0.10514 0.17435 0.46929
v -0.11565 0.18486 0.46929
v -0.13000 0.18870 0.46929
v -0.14435 0.18486 0.46929
v -0.15486 0.17435 0.46929
v -0.15870 0.16000 0.46929
v -0.15486 0.14565 0.46929
v -0.14435 0.13514 0.46929
v -0.13000 0.13130 0.46929
v -0.11565 0.13514 0.46929
v -0.10514 0.14565 0.46929
v -0.07697 0.16000 0.45303
v -0.08407 0.18652 0.45303
v -0.10348 0.20593 0.45303
v -0.13000 0.21303 0.45303
v -0.15652 0.20593 0.45303
v -0.17593 0.18652 0.45303
v -0.18303 0.16000 0.45303
v -0.17593 0.13348 0.45303
v -0.15652 0.11407 0.45303
v -0.13000 0.10697 0.45303
v -0.10348 0.11407 0.45303
v -0.08407 0.13348 0.45303
v -0.06071 0.16000 0.42870
v -0.06999 0.19465 0.42870
v -0.09535 0.22001 0.42870
v -0.13000 0.22929 0.42870
v -0.16465 0.22001 0.42870
v -0.19001 0.19465 0.42870
v -0.19929 0.16000 0.42870
v -0.19001 0.12535 0.42870
v -0.16465 0.09999 0.42870
v -0.13000 0.09071 0.42870
v -0.09535 0.09999 0.42870
v -0.06999 0.12535 0.42870
v -0.05500 0.16000 0.40000
v -0.06505 0.19750 0.40000
v -0.09250 0.22495 0.40000
v -0.13000 0.23500 0.40000
v -0.16750 0.22495 0.40000
v -0.19495 0.19750 0.40000
v -0.20500 0.16000 0.40000
v -0.19495 0.12250 0.40000
v -0.16750 0.09505 0.40000
v -0.13000 0.08500 0.40000
v -0.09250 0.09505 0.40000
v -0.06505 0.12250 0.40000
v -0.06071 0.16000 0.37130
v -0.06999 0.19465 0.37130
v -0.09535 0.22001 0.37130
v -0.13000 0.22929 0.37130
v -0.16465 0.22001 0.37130
v -0.19001 0.19465 0.37130
v -0.19929 0.16000 0.37130
v -0.19001 0.12535 0.37130
v -0.16465 0.09999 0.37130
v -0.13000 0.09071 0.37130
v -0.09535 0.09999 0.37130
v -0.06999 0.12535 0.37130
v -0.07697 0.16000 0.34697
v -0.08407 0.18652 0.34697
v -0.10348 0.20593 0.34697
v -0.13000 0.21303 0.34697
v -0.15652 0.20593 0.34697
v -0.17593 0.18652 0.34697
v -0.18303 0.16000 0.34697
v -0.17593 0.13348 0.34697
v -0.15652 0.11407 0.34697
v -0.13000 0.10697 0.34697
v -0.10348 0.11407 0.34697
v -0.08407 0.13348 0.34697
v -0.10130 0.16000 0.33071
v -0.10514 0.17435 0.33071
v -0.11565 0.18486 0.33071
v -0.13000 0.18870 0.33071
v -0.14435 0.18486 0.33071
v -0.15486 0.17435 0.33071
v -0.15870 0.16000 0.33071
v -0.15486 0.14565 0.33071
v -0.14435 0.13514 0.33071
v -0.13000 0.13130 0.33071
v -0.11565 0.13514 0.33071
v -0.10514 0.14565 0.33071
v -0.13000 0.16000 0.32500
v -0.13000 0.16000 0.32500
v -0.13000 0.16000 0.32500
v -0.13000 0.16000 0.32500
v -0.13000 0.16000 0.32500
v -0.13000 0.16000 0.32500
v -0.13000 0.16000 0.32500
v -0.13000 0.16000 0.32500
v -0.13000 0.16000 0.32500
v -0.13000 0.16000 0.32500
v -0.13000 0.16000 0.32500
v -0.13000 0.16000 0.32500
v -0.15000 0.22500 0.45000
v -0.15000 0.22500 0.45000
v -0.15000 0.22500 0.45000
v -0.15000 0.22500 0.45000
v -0.15000 0.22500 0.45000
v -0.15000 0.22500 0.45000
v -0.15000 0.22500 0.45000
v -0.15000 0.22500 0.45000
v -0.15000 0.22500 0.45000
v -0.15000 0.22500 0.45000
v -0.13250 0.22500 0.44531
v -0.13584 0.23529 0.44531
v -0.14459 0.24164 0.44531
v -0.15541 0.24164 0.44531
v -0.16416 0.23529 0.44531
v -0.16750 0.22500 0.44531
v -0.16416 0.21471 0.44531
v -0.15541 0.20836 0.44531
v -0.14459 0.20836 0.44531
v -0.13584 0.21471 0.44531
v -0.11969 0.22500 0.43250
v -0.12548 0.24282 0.43250
v -0.14063 0.25383 0.43250
v -0.15937 0.25383 0.43250
v -0.17452 0.24282 0.43250
v -0.18031 0.22500 0.43250
v -0.17452 0.20718 0.43250
v -0.15937 0.19617 0.43250
v -0.14063 0.19617 0.43250
v -0.12548 0.20718 0.43250
v -0.11500 0.22500 0.41500
v -0.12168 0.24557 0.41500
v -0.13918 0.25829 0.41500
v -0.16082 0.25829 0.41500
v -0.17832 0.24557 0.41500
v -0.18500 0.22500 0.41500
v -0.17832 0.20443 0.41500
v -0.16082 0.19171 0.41500
v -0.13918 0.19171 0.41500
v -0.12168 0.20443 0.41500
v -0.11969 0.22500 0.39750
v -0.12548 0.24282 0.39750
v -0.14063 0.25383 0.39750
v -0.15937 0.25383 0.39750
v -0.17452 0.24282 0.39750
v -0.18031 0.22500 0.39750
v -0.17452 0.20718 0.39750
v -0.15937 0.19617 0.39750
v -0.14063 0.19617 0.39750
v -0.12548 0.20718 0.39750
v -0.13250 0.22500 0.38469
v -0.13584 0.23529 0.38469
v -0.14459 0.24164 0.38469
v -0.15541 0.24164 0.38469
v -0.16416 0.23529 0.38469
v -0.16750 0.22500 0.38469
v -0.16416 0.21471 0.38469
v -0.15541 0.20836 0.38469
v -0.14459 0.20836 0.38469
v -0.13584 0.21471 0.38469
v -0.15000 0.22500 0.38000
v -0.15000 0.22500 0.38000
v -0.15000 0.22500 0.38000
v -0.15000 0.22500 0.38000
v -0.15000 0.22500 0.38000
v -0.15000 0.22500 0.38000
v -0.15000 0.22500 0.38000
v -0.15000 0.22500 0.38000
v -0.15000 0.22500 0.38000
v -0.15000 0.22500 0.38000
v 0.13000 0.16000 0.47500
v 0.13000 0.16000 0.47500
v 0.13000 0.16000 0.47500
v 0.13000 0.16000 0.47500
v 0.13000 0.16000 0.47500
v 0.13000 0.16000 0.47500
v 0.13000 0.16000 0.47500
v 0.13000 0.16000 0.47500
v 0.13000 0.16000 0.47500
v 0.13000 0.16000 0.47500
v 0.13000 0.16000 0.47500
v 0.13000 0.16000 0.47500
v 0.15870 0.16000 0.46929
v 0.15486 0.17435 0.46929
v 0.14435 0.18486 0.46929
v 0.13000 0.18870 0.46929
v 0.11565 0.18486 0.46929
v 0.10514 0.17435 0.46929
v 0.10130 0.16000 0.46929
v 0.10514 0.14565 0.46929
v 0.11565 0.13514 0.46929
v 0.13000 0.13130 0.46929
v 0.14435 0.13514 0.46929
v 0.15486 0.14565 0.46929
v 0.18303 0.16000 0.45303
v 0.17593 0.18652 0.45303
v 0.15652 0.20593 0.45303
v 0.13000 0.21303 0.45303
v 0.10348 0.20593 0.45303
v 0.08407 0.18652 0.45303
v 0.07697 0.16000 0.45303
v 0.08407 0.13348 0.45303
v 0.10348 0.11407 0.45303
v 0.13000 0.10697 0.45303
v 0.15652 0.11407 0.45303
v 0.17593 0.13348 0.45303
v 0.19929 0.16000 0.42870
v 0.19001 0.19465 0.42870
v 0.16465 0.22001 0.42870
v 0.13000 0.22929 0.42870
v 0.09535 0.22001 0.42870
v 0.06999 0.19465 0.42870
v 0.06071 0.16000 0.42870
v 0.06999 0.12535 0.42870
v 0.09535 0.09999 0.42870
v 0.13000 0.09071 0.42870
v 0.16465 0.09999 0.42870
v 0.19001 0.12535 0.42870
v 0.20500 0.16000 0.40000
v 0.19495 0.19750 0.40000
v 0.16750 0.22495 0.40000
v 0.13000 0.23500 0.40000
v 0.09250 0.22495 0.40000
v 0.06505 0.19750 0.40000
v 0.05500 0.16000 0.40000
v 0.06505 0.12250 0.40000
v 0.09250 0.09505 0.40000
v 0.13000 0.08500 0.40000
v 0.16750 0.09505 0.40000
v 0.19495 0.12250 0.40000
v 0.19929 0.16000 0.37130
v 0.19001 0.19465 0.37130
v 0.16465 0.22001 0.37130
v 0.13000 0.22929 0.37130
v 0.09535 0.22001 0.37130
v 0.06999 0.19465 0.37130
v 0.06071 0.16000 0.37130
v 0.06999 0.12535 0.37130
v 0.09535 0.09999 0.37130
v 0.13000 0.09071 0.37130
v 0.16465 0.09999 0.37130
v 0.19001 0.12535 0.37130
v 0.18303 0.16000 0.34697
v 0.17593 0.18652 0.34697
v 0.15652 0.20593 0.34697
v 0.13000 0.21303 0.34697
v 0.10348 0.20593 0.34697
v 0.08407 0.18652 0.34697
v 0.07697 0.16000 0.34697
v 0.08407 0.13348 0.34697
v 0.10348 0.11407 0.34697
v 0.13000 0.10697 0.34697
v 0.15652 0.11407 0.34697
v 0.17593 0.13348 0.34697
v 0.15870 0.16000 0.33071
v 0.15486 0.17435 0.33071
v 0.14435 0.18486 0.33071
v 0.13000 0.18870 0.33071
v 0.11565 0.18486 0.33071
v 0.10514 0.17435 0.33071
v 0.10130 0.16000 0.33071
v 0.10514 0.14565 0.33071
v 0.11565 0.13514 0.33071
v 0.13000 0.13130 0.33071
v 0.14435 0.13514 0.33071
v 0.15486 0.14565 0.33071
v 0.13000 0.16000 0.32500
v 0.13000 0.16000 0.32500
v 0.13000 0.16000 0.32500
v 0.13000 0.16000 0.32500
v 0.13000 0.16000 0.32500
v 0.13000 0.16000 0.32500
v 0.13000 0.16000 0.32500
v 0.13000 0.16000 0.32500
v 0.13000 0.16000 0.32500
v 0.13000 0.16000 0.32500
v 0.13000 0.16000 0.32500
v 0.13000 0.16000 0.32500
v 0.15000 0.22500 0.45000
v 0.15000 0.22500 0.45000
v 0.15000 0.22500 0.45000
v 0.15000 0.22500 0.45000
v 0.15000 0.22500 0.45000
v 0.15000 0.22500 0.45000
v 0.15000 0.22500 0.45000
v 0.15000 0.22500 0.45000
v 0.15000 0.22500 0.45000
v 0.15000 0.22500 0.45000
v 0.16750 0.22500 0.44531
v 0.16416 0.23529 0.44531
v 0.15541 0.24164 0.44531
v 0.14459 0.24164 0.44531
v 0.13584 0.23529 0.44531
v 0.13250 0.22500 0.44531
v 0.13584 0.21471 0.44531
v 0.14459 0.20836 0.44531
v 0.15541 0.20836 0.44531
v 0.16416 0.21471 0.44531
v 0.18031 0.22500 0.43250
v 0.17452 0.24282 0.43250
v 0.15937 0.25383 0.43250
v 0.14063 0.25383 0.43250
v 0.12548 0.24282 0.43250
v 0.11969 0.22500 0.43250
v 0.12548 0.20718 0.43250
v 0.14063 0.19617 0.43250
v 0.15937 0.19617 0.43250
v 0.17452 0.20718 0.43250
v 0.18500 0.22500 0.41500
v 0.17832 0.24557 0.41500
v 0.16082 0.25829 0.41500
v 0.13918 0.25829 0.41500
v 0.12168 0.24557 0.41500
v 0.11500 0.22500 0.41500
v 0.12168 0.20443 0.41500
v 0.13918 0.19171 0.41500
v 0.16082 0.19171 0.41500
v 0.17832 0.20443 0.41500
v 0.18031 0.22500 0.39750
v 0.17452 0.24282 0.39750
v 0.15937 0.25383 0.39750
v 0.14063 0.25383 0.39750
v 0.12548 0.24282 0.39750
v 0.11969 0.22500 0.39750
v 0.12548 0.20718 0.39750
v 0.14063 0.19617 0.39750
v 0.15937 0.19617 0.39750
v 0.17452 0.20718 0.39750
v 0.16750 0.22500 0.38469
v 0.16416 0.23529 0.38469
v 0.15541 0.24164 0.38469
v 0.14459 0.24164 0.38469
v 0.13584 0.23529 0.38469
v 0.13250 0.22500 0.38469
v 0.13584 0.21471 0.38469
v 0.14459 0.20836 0.38469
v 0.15541 0.20836 0.38469
v 0.16416 0.21471 0.38469
v 0.15000 0.22500 0.38000
v 0.15000 0.22500 0.38000
v 0.15000 0.22500 0.38000
v 0.15000 0.22500 0.38000
v 0.15000 0.22500 0.38000
v 0.15000 0.22500 0.38000
v 0.15000 0.22500 0.38000
v 0.15000 0.22500 0.38000
v 0.15000 0.22500 0.38000
v 0.15000 0.22500 0.38000
v 0.02500 0.33500 0.14800
v 0.02500 0.50500 0.14800
v 0.02500 0.50500 0.17200
v 0.02500 0.33500 0.17200
v -0.02500 0.50500 0.14800
v -0.02500 0.33500 0.14800
v -0.02500 0.33500 0.17200
v -0.02500 0.50500 0.17200
v 0.02500 0.50500 0.14800
v -0.02500 0.50500 0.14800
v -0.02500 0.50500 0.17200
v 0.02500 0.50500 0.17200
v -0.02500 0.33500 0.14800
v 0.02500 0.33500 0.14800
v 0.02500 0.33500 0.17200
v -0.02500 0.33500 0.17200
v -0.02500 0.33500 0.17200
v 0.02500 0.33500 0.17200
v 0.02500 0.50500 0.17200
v -0.02500 0.50500 0.17200
v 0.02500 0.33500 0.14800
v -0.02500 0.33500 0.14800
v -0.02500 0.50500 0.14800
v 0.02500 0.50500 0.14800
v -0.01126 0.49939 0.15000
v -0.03545 0.59642 0.15000
v -0.03545 0.59642 0.17000
v -0.01126 0.49939 0.17000
v -0.05874 0.59061 0.15000
v -0.03455 0.49358 0.15000
v -0.03455 0.49358 0.17000
v -0.05874 0.59061 0.17000
v -0.03545 0.59642 0.15000
v -0.05874 0.59061 0.15000
v -0.05874 0.59061 0.17000
v -0.03545 0.59642 0.17000
v -0.03455 0.49358 0.15000
v -0.01126 0.49939 0.15000
v -0.01126 0.49939 0.17000
v -0.03455 0.49358 0.17000
v -0.03455 0.49358 0.17000
v -0.01126 0.49939 0.17000
v -0.03545 0.59642 0.17000
v -0.05874 0.59061 0.17000
v -0.01126 0.49939 0.15000
v -0.03455 0.49358 0.15000
v -0.05874 0.59061 0.15000
v -0.03545 0.59642 0.15000
v 0.03455 0.49358 0.15000
v 0.05874 0.59061 0.15000
v 0.05874 0.59061 0.17000
v 0.03455 0.49358 0.17000
v 0.03545 0.59642 0.15000
v 0.01126 0.49939 0.15000
v 0.01126 0.49939 0.17000
v 0.03545 0.59642 0.17000
v 0.05874 0.59061 0.15000
v 0.03545 0.59642 0.15000
v 0.03545 0.59642 0.17000
v 0.05874 0.59061 0.17000
v 0.01126 0.49939 0.15000
v 0.03455 0.49358 0.15000
v 0.03455 0.49358 0.17000
v 0.01126 0.49939 0.17000
v 0.01126 0.49939 0.17000
v 0.03455 0.49358 0.17000
v 0.05874 0.59061 0.17000
v 0.03545 0.59642 0.17000
v 0.03455 0.49358 0.15000
v 0.01126 0.49939 0.15000
v 0.03545 0.59642 0.15000
v 0.05874 0.59061 0.15000
vn 0.00000 0.00000 1.00000
vn 0.00000 0.00000 1.00000
vn 0.00000 0.00000 1.00000
vn 0.00000 0.00000 1.00000
vn 0.00000 0.00000 1.00000
vn 0.00000 0.00000 1.00000
vn -0.00000 0.00000 1.00000
vn -0.00000 0.00000 1.00000
vn -0.00000 0.00000 1.00000
vn -0.00000 0.00000 1.00000
vn -0.00000 0.00000 1.00000
vn -0.00000 0.00000 1.00000
vn -0.00000 -0.00000 1.00000
vn -0.00000 -0.00000 1.00000
vn -0.00000 -0.00000 1.00000
vn -0.00000 -0.00000 1.00000
vn -0.00000 -0.00000 1.00000
vn 0.00000 -0.00000 1.00000
vn 0.00000 -0.00000 1.00000
vn 0.00000 -0.00000 1.00000
vn 0.00000 -0.00000 1.00000
vn 0.00000 -0.00000 1.00000
vn 0.19883 0.00000 0.98003
vn 0.19091 0.04204 0.98071
vn 0.16769 0.08083 0.98252
vn 0.13086 0.11326 0.98491
vn 0.08320 0.13663 0.98712
vn 0.02854 0.14887 0.98844
vn -0.02854 0.14887 0.98844
vn -0.08320 0.13663 0.98712
vn -0.13086 0.11326 0.98491
vn -0.16769 0.08083 0.98252
vn -0.19091 0.04204 0.98071
vn -0.19883 0.00000 0.98003
vn -0.19091 -0.04204 0.98071
vn -0.16769 -0.08083 0.98252
vn -0.13086 -0.11326 0.98491
vn -0.08320 -0.13663 0.98712
vn -0.02854 -0.14887 0.98844
vn 0.02854 -0.14887 0.98844
vn 0.08320 -0.13663 0.98712
vn 0.13086 -0.11326 0.98491
vn 0.16769 -0.08083 0.98252
vn 0.19091 -0.04204 0.98071
vn 0.39353 0.00000 0.91931
vn 0.37861 0.08338 0.92180
vn 0.33438 0.16117 0.92855
vn 0.26284 0.22750 0.93763
vn 0.16826 0.27633 0.94622
vn 0.05796 0.30235 0.95143
vn -0.05796 0.30235 0.95143
vn -0.16826 0.27633 0.94622
vn -0.26284 0.22750 0.93763
vn -0.33438 0.16117 0.92855
vn -0.37861 0.08338 0.92180
vn -0.39353 0.00000 0.91931
vn -0.37861 -0.08338 0.92180
vn -0.33438 -0.16117 0.92855
vn -0.26284 -0.22750 0.93763
vn -0.16826 -0.27633 0.94622
vn -0.05796 -0.30235 0.95143
vn 0.05796 -0.30235 0.95143
vn 0.16826 -0.27633 0.94622
vn 0.26284 -0.22750 0.93763
vn 0.33438 -0.16117 0.92855
vn 0.37861 -0.08338 0.92180
vn 0.57831 0.00000 0.81582
vn 0.55813 0.12291 0.82060
vn 0.49725 0.23967 0.83385
vn 0.39560 0.34241 0.85221
vn 0.25625 0.42083 0.87019
vn 0.08892 0.46385 0.88144
vn -0.08892 0.46385 0.88144
vn -0.25625 0.42083 0.87019
vn -0.39560 0.34241 0.85221
vn -0.49725 0.23967 0.83385
vn -0.55813 0.12291 0.82060
vn -0.57831 0.00000 0.81582
vn -0.55813 -0.12291 0.82060
vn -0.49725 -0.23967 0.83385
vn -0.39560 -0.34241 0.85221
vn -0.25625 -0.42083 0.87019
vn -0.08892 -0.46385 0.88144
vn 0.08892 -0.46385 0.88144
vn 0.25625 -0.42083 0.87019
vn 0.39560 -0.34241 0.85221
vn 0.49725 -0.23967 0.83385
vn 0.55813 -0.12291 0.82060
vn 0.74435 0.00000 0.66779
vn 0.72117 0.15881 0.67431
vn 0.64962 0.31311 0.69279
vn 0.52515 0.45454 0.71945
vn 0.34583 0.56795 0.74688
vn 0.12131 0.63280 0.76475
vn -0.12131 0.63280 0.76475
vn -0.34583 0.56795 0.74688
vn -0.52515 0.45454 0.71945
vn -0.64962 0.31311 0.69279
vn -0.72117 0.15881 0.67431
vn -0.74435 0.00000 0.66779
vn -0.72117 -0.15881 0.67431
vn -0.64962 -0.31311 0.69279
vn -0.52515 -0.45454 0.71945
vn -0.34583 -0.56795 0.74688
vn -0.12131 -0.63280 0.76475
vn 0.12131 -0.63280 0.76475
vn 0.34583 -0.56795 0.74688
vn 0.52515 -0.45454 0.71945
vn 0.64962 -0.31311 0.69279
vn 0.72117 -0.15881 0.67431
vn 0.87925 0.00000 0.47635
vn 0.85519 0.18833 0.48288
vn 0.77919 0.37557 0.50180
vn 0.64102 0.55484 0.53032
vn 0.43041 0.70686 0.56133
vn 0.15303 0.79825 0.58256
vn -0.15303 0.79825 0.58256
vn -0.43041 0.70686 0.56133
vn -0.64102 0.55484 0.53032
vn -0.77919 0.37557 0.50180
vn -0.85519 0.18833 0.48288
vn -0.87925 0.00000 0.47635
vn -0.85519 -0.18833 0.48288
vn -0.77919 -0.37557 0.50180
vn -0.64102 -0.55484 0.53032
vn -0.43041 -0.70686 0.56133
vn -0.15303 -0.79825 0.58256
vn 0.15303 -0.79825 0.58256
vn 0.43041 -0.70686 0.56133
vn 0.64102 -0.55484 0.53032
vn 0.77919 -0.37557 0.50180
vn 0.85519 -0.18833 0.48288
vn 0.96858 0.00000 0.24871
vn 0.94486 0.20808 0.25286
vn 0.86859 0.41865 0.26512
vn 0.72492 0.62745 0.28424
vn 0.49513 0.81313 0.30605
vn 0.17827 0.92993 0.32165
vn -0.17827 0.92993 0.32165
vn -0.49513 0.81313 0.30605
vn -0.72492 0.62745 0.28424
vn -0.86859 0.41865 0.26512
vn -0.94486 0.20808 0.25286
vn -0.96858 0.00000 0.24871
vn -0.94486 -0.20808 0.25286
vn -0.86859 -0.41865 0.26512
vn -0.72492 -0.62745 0.28424
vn -0.49513 -0.81313 0.30605
vn -0.17827 -0.92993 0.32165
vn 0.17827 -0.92993 0.32165
vn 0.49513 -0.81313 0.30605
vn 0.72492 -0.62745 0.28424
vn 0.86859 -0.41865 0.26512
vn 0.94486 -0.20808 0.25286
vn 1.00000 0.00000 0.00000
vn 0.97660 0.21507 0.00000
vn 0.90082 0.43419 0.00000
vn 0.75611 0.65445 0.00000
vn 0.52008 0.85412 0.00000
vn 0.18828 0.98212 0.00000
vn -0.18828 0.98212 0.00000
vn -0.52008 0.85412 0.00000
vn -0.75611 0.65445 0.00000
vn -0.90082 0.43419 0.00000
vn -0.97660 0.21507 0.00000
vn -1.00000 0.00000 0.00000
vn -0.97660 -0.21507 0.00000
vn -0.90082 -0.43419 0.00000
vn -0.75611 -0.65445 0.00000
vn -0.52008 -0.85412 0.00000
vn -0.18828 -0.98212 0.00000
vn 0.18828 -0.98212 0.00000
vn 0.52008 -0.85412 0.00000
vn 0.75611 -0.65445 0.00000
vn 0.90082 -0.43419 0.00000
vn 0.97660 -0.21507 0.00000
vn 0.96858 0.00000 -0.24871
vn 0.94486 0.20808 -0.25286
vn 0.86859 0.41865 -0.26512
vn 0.72492 0.62745 -0.28424
vn 0.49513 0.81313 -0.30605
vn 0.17827 0.92993 -0.32165
vn -0.17827 0.92993 -0.32165
vn -0.49513 0.81313 -0.30605
vn -0.72492 0.62745 -0.28424
vn -0.86859 0.41865 -0.26512
vn -0.94486 0.20808 -0.25286
vn -0.96858 0.00000 -0.24871
vn -0.94486 -0.20808 -0.25286
vn -0.86859 -0.41865 -0.26512
vn -0.72492 -0.62745 -0.28424
vn -0.49513 -0.81313 -0.30605
vn -0.17827 -0.92993 -0.32165
vn 0.17827 -0.92993 -0.32165
vn 0.49513 -0.81313 -0.30605
vn 0.72492 -0.62745 -0.28424
vn 0.86859 -0.41865 -0.26512
vn 0.94486 -0.20808 -0.25286
vn 0.87925 0.00000 -0.47635
vn 0.85519 0.18833 -0.48288
vn 0.77919 0.37557 -0.50180
vn 0.64102 0.55484 -0.53032
vn 0.43041 0.70686 -0.56133
vn 0.15303 0.79825 -0.58256
vn -0.15303 0.79825 -0.58256
vn -0.43041 0.70686 -0.56133
vn -0.64102 0.55484 -0.53032
vn -0.77919 0.37557 -0.50180
vn -0.85519 0.18833 -0.48288
vn -0.87925 0.00000 -0.47635
vn -0.85519 -0.18833 -0.48288
vn -0.77919 -0.37557 -0.50180
vn -0.64102 -0.55484 -0.53032
vn -0.43041 -0.70686 -0.56133
vn -0.15303 -0.79825 -0.58256
vn 0.15303 -0.79825 -0.58256
vn 0.43041 -0.70686 -0.56133
vn 0.64102 -0.55484 -0.53032
vn 0.77919 -0.37557 -0.50180
vn 0.85519 -0.18833 -0.48288
vn 0.74435 0.00000 -0.66779
vn 0.72117 0.15881 -0.67431
vn 0.64962 0.31311 -0.69279
vn 0.52515 0.45454 -0.71945
vn 0.34583 0.56795 -0.74688
vn 0.12131 0.63280 -0.76475
vn -0.12131 0.63280 -0.76475
vn -0.34583 0.56795 -0.74688
vn -0.52515 0.45454 -0.71945
vn -0.64962 0.31311 -0.69279
vn -0.72117 0.15881 -0.67431
vn -0.74435 0.00000 -0.66779
vn -0.72117 -0.15881 -0.67431
vn -0.64962 -0.31311 -0.69279
vn -0.52515 -0.45454 -0.71945
vn -0.34583 -0.56795 -0.74688
vn -0.12131 -0.63280 -0.76475
vn 0.12131 -0.63280 -0.76475
vn 0.34583 -0.56795 -0.74688
vn 0.52515 -0.45454 -0.71945
vn 0.64962 -0.31311 -0.69279
vn 0.72117 -0.15881 -0.67431
vn 0.57831 0.00000 -0.81582
vn 0.55813 0.12291 -0.82060
vn 0.49725 0.23967 -0.83385
vn 0.39560 0.34241 -0.85221
vn 0.25625 0.42083 -0.87019
vn 0.08892 0.46385 -0.88144
vn -0.08892 0.46385 -0.88144
vn -0.25625 0.42083 -0.87019
vn -0.39560 0.34241 -0.85221
vn -0.49725 0.23967 -0.83385
vn -0.55813 0.12291 -0.82060
vn -0.57831 0.00000 -0.81582
vn -0.55813 -0.12291 -0.82060
vn -0.49725 -0.23967 -0.83385
vn -0.39560 -0.34241 -0.85221
vn -0.25625 -0.42083 -0.87019
vn -0.08892 -0.46385 -0.88144
vn 0.08892 -0.46385 -0.88144
vn 0.25625 -0.42083 -0.87019
vn 0.39560 -0.34241 -0.85221
vn 0.49725 -0.23967 -0.83385
vn 0.55813 -0.12291 -0.82060
vn 0.39353 0.00000 -0.91931
vn 0.37861 0.08338 -0.92180
vn 0.33438 0.16117 -0.92855
vn 0.26284 0.22750 -0.93763
vn 0.16826 0.27633 -0.94622
vn 0.05796 0.30235 -0.95143
vn -0.05796 0.30235 -0.95143
vn -0.16826 0.27633 -0.94622
vn -0.26284 0.22750 -0.93763
vn -0.33438 0.16117 -0.92855
vn -0.37861 0.08338 -0.92180
vn -0.39353 0.00000 -0.91931
vn -0.37861 -0.08338 -0.92180
vn -0.33438 -0.16117 -0.92855
vn -0.26284 -0.22750 -0.93763
vn -0.16826 -0.27633 -0.94622
vn -0.05796 -0.30235 -0.95143
vn 0.05796 -0.30235 -0.95143
vn 0.16826 -0.27633 -0.94622
vn 0.26284 -0.22750 -0.93763
vn 0.33438 -0.16117 -0.92855
vn 0.37861 -0.08338 -0.92180
vn 0.19883 0.00000 -0.98003
vn 0.19091 0.04204 -0.98071
vn 0.16769 0.08083 -0.98252
vn 0.13086 0.11326 -0.98491
vn 0.08320 0.13663 -0.98712
vn 0.02854 0.14887 -0.98844
vn -0.02854 0.14887 -0.98844
vn -0.08320 0.13663 -0.98712
vn -0.13086 0.11326 -0.98491
vn -0.16769 0.08083 -0.98252
vn -0.19091 0.04204 -0.98071
vn -0.19883 0.00000 -0.98003
vn -0.19091 -0.04204 -0.98071
vn -0.16769 -0.08083 -0.98252
vn -0.13086 -0.11326 -0.98491
vn -0.08320 -0.13663 -0.98712
vn -0.02854 -0.14887 -0.98844
vn 0.02854 -0.14887 -0.98844
vn 0.08320 -0.13663 -0.98712
vn 0.13086 -0.11326 -0.98491
vn 0.16769 -0.08083 -0.98252
vn 0.19091 -0.04204 -0.98071
vn 0.00000 0.00000 -1.00000
vn 0.00000 0.00000 -1.00000
vn 0.00000 0.00000 -1.00000
vn 0.00000 0.00000 -1.00000
vn 0.00000 0.00000 -1.00000
vn 0.00000 0.00000 -1.00000
vn -0.00000 0.00000 -1.00000
vn -0.00000 0.00000 -1.00000
vn -0.00000 0.00000 -1.00000
vn -0.00000 0.00000 -1.00000
vn -0.00000 0.00000 -1.00000
vn -0.00000 0.00000 -1.00000
vn -0.00000 -0.00000 -1.00000
vn -0.00000 -0.00000 -1.00000
vn -0.00000 -0.00000 -1.00000
vn -0.00000 -0.00000 -1.00000
vn -0.00000 -0.00000 -1.00000
vn 0.00000 -0.00000 -1.00000
vn 0.00000 -0.00000 -1.00000
vn 0.00000 -0.00000 -1.00000
vn 0.00000 -0.00000 -1.00000
vn 0.00000 -0.00000 -1.00000
vn 0.00000 0.00000 1.00000
vn 0.00000 0.00000 1.00000
vn 0.00000 0.00000 1.00000
vn 0.00000 0.00000 1.00000
vn -0.00000 0.00000 1.00000
vn -0.00000 0.00000 1.00000
vn -0.00000 0.00000 1.00000
vn -0.00000 -0.00000 1.00000
vn -0.00000 -0.00000 1.00000
vn -0.00000 -0.00000 1.00000
vn 0.00000 -0.00000 1.00000
vn 0.00000 -0.00000 1.00000
vn 0.38268 0.00000 0.92388
vn 0.33141 0.19134 0.92388
vn 0.19134 0.33141 0.92388
vn 0.00000 0.38268 0.92388
vn -0.19134 0.33141 0.92388
vn -0.33141 0.19134 0.92388
vn -0.38268 0.00000 0.92388
vn -0.33141 -0.19134 0.92388
vn -0.19134 -0.33141 0.92388
vn -0.00000 -0.38268 0.92388
vn 0.19134 -0.33141 0.92388
vn 0.33141 -0.19134 0.92388
vn 0.70711 0.00000 0.70711
vn 0.61237 0.35355 0.70711
vn 0.35355 0.61237 0.70711
vn 0.00000 0.70711 0.70711
vn -0.35355 0.61237 0.70711
vn -0.61237 0.35355 0.70711
vn -0.70711 0.00000 0.70711
vn -0.61237 -0.35355 0.70711
vn -0.35355 -0.61237 0.70711
vn -0.00000 -0.70711 0.70711
vn 0.35355 -0.61237 0.70711
vn 0.61237 -0.35355 0.70711
vn 0.92388 0.00000 0.38268
vn 0.80010 0.46194 0.38268
vn 0.46194 0.80010 0.38268
vn 0.00000 0.92388 0.38268
vn -0.46194 0.80010 0.38268
vn -0.80010 0.46194 0.38268
vn -0.92388 0.00000 0.38268
vn -0.80010 -0.46194 0.38268
vn -0.46194 -0.80010 0.38268
vn -0.00000 -0.92388 0.38268
vn 0.46194 -0.80010 0.38268
vn 0.80010 -0.46194 0.38268
vn 1.00000 0.00000 0.00000
vn 0.86603 0.50000 0.00000
vn 0.50000 0.86603 0.00000
vn 0.00000 1.00000 0.00000
vn -0.50000 0.86603 0.00000
vn -0.86603 0.50000 0.00000
vn -1.00000 0.00000 0.00000
vn -0.86603 -0.50000 0.00000
vn -0.50000 -0.86603 0.00000
vn -0.00000 -1.00000 0.00000
vn 0.50000 -0.86603 0.00000
vn 0.86603 -0.50000 0.00000
vn 0.92388 0.00000 -0.38268
vn 0.80010 0.46194 -0.38268
vn 0.46194 0.80010 -0.38268
vn 0.00000 0.92388 -0.38268
vn -0.46194 0.80010 -0.38268
vn -0.80010 0.46194 -0.38268
vn -0.92388 0.00000 -0.38268
vn -0.80010 -0.46194 -0.38268
vn -0.46194 -0.80010 -0.38268
vn -0.00000 -0.92388 -0.38268
vn 0.46194 -0.80010 -0.38268
vn 0.80010 -0.46194 -0.38268
vn 0.70711 0.00000 -0.70711
vn 0.61237 0.35355 -0.70711
vn 0.35355 0.61237 -0.70711
vn 0.00000 0.70711 -0.70711
vn -0.35355 0.61237 -0.70711
vn -0.61237 0.35355 -0.70711
vn -0.70711 0.00000 -0.70711
vn -0.61237 -0.35355 -0.70711
vn -0.35355 -0.61237 -0.70711
vn -0.00000 -0.70711 -0.70711
vn 0.35355 -0.61237 -0.70711
vn 0.61237 -0.35355 -0.70711
vn 0.38268 0.00000 -0.92388
vn 0.33141 0.19134 -0.92388
vn 0.19134 0.33141 -0.92388
vn 0.00000 0.38268 -0.92388
vn -0.19134 0.33141 -0.92388
vn -0.33141 0.19134 -0.92388
vn -0.38268 0.00000 -0.92388
vn -0.33141 -0.19134 -0.92388
vn -0.19134 -0.33141 -0.92388
vn -0.00000 -0.38268 -0.92388
vn 0.19134 -0.33141 -0.92388
vn 0.33141 -0.19134 -0.92388
vn 0.00000 0.00000 -1.00000
vn 0.00000 0.00000 -1.00000
vn 0.00000 0.00000 -1.00000
vn 0.00000 0.00000 -1.00000
vn -0.00000 0.00000 -1.00000
vn -0.00000 0.00000 -1.00000
vn -0.00000 0.00000 -1.00000
vn -0.00000 -0.00000 -1.00000
vn -0.00000 -0.00000 -1.00000
vn -0.00000 -0.00000 -1.00000
vn 0.00000 -0.00000 -1.00000
vn 0.00000 -0.00000 -1.00000
vn 0.00000 0.00000 1.00000
vn 0.00000 0.00000 1.00000
vn 0.00000 0.00000 1.00000
vn -0.00000 0.00000 1.00000
vn -0.00000 0.00000 1.00000
vn -0.00000 0.00000 1.00000
vn -0.00000 -0.00000 1.00000
vn -0.00000 -0.00000 1.00000
vn 0.00000 -0.00000 1.00000
vn 0.00000 -0.00000 1.00000
vn 0.50000 0.00000 0.86603
vn 0.40451 0.29389 0.86603
vn 0.15451 0.47553 0.86603
vn -0.15451 0.47553 0.86603
vn -0.40451 0.29389 0.86603
vn -0.50000 0.00000 0.86603
vn -0.40451 -0.29389 0.86603
vn -0.15451 -0.47553 0.86603
vn 0.15451 -0.47553 0.86603
vn 0.40451 -0.29389 0.86603
vn 0.86603 0.00000 0.50000
vn 0.70063 0.50904 0.50000
vn 0.26762 0.82364 0.50000
vn -0.26762 0.82364 0.50000
vn -0.70063 0.50904 0.50000
vn -0.86603 0.00000 0.50000
vn -0.70063 -0.50904 0.50000
vn -0.26762 -0.82364 0.50000
vn 0.26762 -0.82364 0.50000
vn 0.70063 -0.50904 0.50000
vn 1.00000 0.00000 0.00000
vn 0.80902 0.58779 0.00000
vn 0.30902 0.95106 0.00000
vn -0.30902 0.95106 0.00000
vn -0.80902 0.58779 0.00000
vn -1.00000 0.00000 0.00000
vn -0.80902 -0.58779 0.00000
vn -0.30902 -0.95106 0.00000
vn 0.30902 -0.95106 0.00000
vn 0.80902 -0.58779 0.00000
vn 0.86603 0.00000 -0.50000
vn 0.70063 0.50904 -0.50000
vn 0.26762 0.82364 -0.50000
vn -0.26762 0.82364 -0.50000
vn -0.70063 0.50904 -0.50000
vn -0.86603 0.00000 -0.50000
vn -0.70063 -0.50904 -0.50000
vn -0.26762 -0.82364 -0.50000
vn 0.26762 -0.82364 -0.50000
vn 0.70063 -0.50904 -0.50000
vn 0.50000 0.00000 -0.86603
vn 0.40451 0.29389 -0.86603
vn 0.15451 0.47553 -0.86603
vn -0.15451 0.47553 -0.86603
vn -0.40451 0.29389 -0.86603
vn -0.50000 0.00000 -0.86603
vn -0.40451 -0.29389 -0.86603
vn -0.15451 -0.47553 -0.86603
vn 0.15451 -0.47553 -0.86603
vn 0.40451 -0.29389 -0.86603
vn 0.00000 0.00000 -1.00000
vn 0.00000 0.00000 -1.00000
vn 0.00000 0.00000 -1.00000
vn -0.00000 0.00000 -1.00000
vn -0.00000 0.00000 -1.00000
vn -0.00000 0.00000 -1.00000
vn -0.00000 -0.00000 -1.00000
vn -0.00000 -0.00000 -1.00000
vn 0.00000 -0.00000 -1.00000
vn 0.00000 -0.00000 -1.00000
vn 0.00000 0.00000 1.00000
vn 0.00000 0.00000 1.00000
vn 0.00000 0.00000 1.00000
vn 0.00000 0.00000 1.00000
vn -0.00000 0.00000 1.00000
vn -0.00000 0.00000 1.00000
vn -0.00000 0.00000 1.00000
vn -0.00000 -0.00000 1.00000
vn -0.00000 -0.00000 1.00000
vn -0.00000 -0.00000 1.00000
vn 0.00000 -0.00000 1.00000
vn 0.00000 -0.00000 1.00000
vn 0.38268 0.00000 0.92388
vn 0.33141 0.19134 0.92388
vn 0.19134 0.33141 0.92388
vn 0.00000 0.38268 0.92388
vn -0.19134 0.33141 0.92388
vn -0.33141 0.19134 0.92388
vn -0.38268 0.00000 0.92388
vn -0.33141 -0.19134 0.92388
vn -0.19134 -0.33141 0.92388
vn -0.00000 -0.38268 0.92388
vn 0.19134 -0.33141 0.92388
vn 0.33141 -0.19134 0.92388
vn 0.70711 0.00000 0.70711
vn 0.61237 0.35355 0.70711
vn 0.35355 0.61237 0.70711
vn 0.00000 0.70711 0.70711
vn -0.35355 0.61237 0.70711
vn -0.61237 0.35355 0.70711
vn -0.70711 0.00000 0.70711
vn -0.61237 -0.35355 0.70711
vn -0.35355 -0.61237 0.70711
vn -0.00000 -0.70711 0.70711
vn 0.35355 -0.61237 0.70711
vn 0.61237 -0.35355 0.70711
vn 0.92388 0.00000 0.38268
vn 0.80010 0.46194 0.38268
vn 0.46194 0.80010 0.38268
vn 0.00000 0.92388 0.38268
vn -0.46194 0.80010 0.38268
vn -0.80010 0.46194 0.38268
vn -0.92388 0.00000 0.38268
vn -0.80010 -0.46194 0.38268
vn -0.46194 -0.80010 0.38268
vn -0.00000 -0.92388 0.38268
vn 0.46194 -0.80010 0.38268
vn 0.80010 -0.46194 0.38268
vn 1.00000 0.00000 0.00000
vn 0.86603 0.50000 0.00000
vn 0.50000 0.86603 0.00000
vn 0.00000 1.00000 0.00000
vn -0.50000 0.86603 0.00000
vn -0.86603 0.50000 0.00000
vn -1.00000 0.00000 0.00000
vn -0.86603 -0.50000 0.00000
vn -0.50000 -0.86603 0.00000
vn -0.00000 -1.00000 0.00000
vn 0.50000 -0.86603 0.00000
vn 0.86603 -0.50000 0.00000
vn 0.92388 0.00000 -0.38268
vn 0.80010 0.46194 -0.38268
vn 0.46194 0.80010 -0.38268
vn 0.00000 0.92388 -0.38268
vn -0.46194 0.80010 -0.38268
vn -0.80010 0.46194 -0.38268
vn -0.92388 0.00000 -0.38268
vn -0.80010 -0.46194 -0.38268
vn -0.46194 -0.80010 -0.38268
vn -0.00000 -0.92388 -0.38268
vn 0.46194 -0.80010 -0.38268
vn 0.80010 -0.46194 -0.38268
vn 0.70711 0.00000 -0.70711
vn 0.61237 0.35355 -0.70711
vn 0.35355 0.61237 -0.70711
vn 0.00000 0.70711 -0.70711
vn -0.35355 0.61237 -0.70711
vn -0.61237 0.35355 -0.70711
vn -0.70711 0.00000 -0.70711
vn -0.61237 -0.35355 -0.70711
vn -0.35355 -0.61237 -0.70711
vn -0.00000 -0.70711 -0.70711
vn 0.35355 -0.61237 -0.70711
vn 0.61237 -0.35355 -0.70711
vn 0.38268 0.00000 -0.92388
vn 0.33141 0.19134 -0.92388
vn 0.19134 0.33141 -0.92388
vn 0.00000 0.38268 -0.92388
vn -0.19134 0.33141 -0.92388
vn -0.33141 0.19134 -0.92388
vn -0.38268 0.00000 -0.92388
vn -0.33141 -0.19134 -0.92388
vn -0.19134 -0.33141 -0.92388
vn -0.00000 -0.38268 -0.92388
vn 0.19134 -0.33141 -0.92388
vn 0.33141 -0.19134 -0.92388
vn 0.00000 0.00000 -1.00000
vn 0.00000 0.00000 -1.00000
vn 0.00000 0.00000 -1.00000
vn 0.00000 0.00000 -1.00000
vn -0.00000 0.00000 -1.00000
vn -0.00000 0.00000 -1.00000
vn -0.00000 0.00000 -1.00000
vn -0.00000 -0.00000 -1.00000
vn -0.00000 -0.00000 -1.00000
vn -0.00000 -0.00000 -1.00000
vn 0.00000 -0.00000 -1.00000
vn 0.00000 -0.00000 -1.00000
vn 0.00000 0.00000 1.00000
vn 0.00000 0.00000 1.00000
vn 0.00000 0.00000 1.00000
vn -0.00000 0.00000 1.00000
vn -0.00000 0.00000 1.00000
vn -0.00000 0.00000 1.00000
vn -0.00000 -0.00000 1.00000
vn -0.00000 -0.00000 1.00000
vn 0.00000 -0.00000 1.00000
vn 0.00000 -0.00000 1.00000
vn 0.50000 0.00000 0.86603
vn 0.40451 0.29389 0.86603
vn 0.15451 0.47553 0.86603
vn -0.15451 0.47553 0.86603
vn -0.40451 0.29389 0.86603
vn -0.50000 0.00000 0.86603
vn -0.40451 -0.29389 0.86603
vn -0.15451 -0.47553 0.86603
vn 0.15451 -0.47553 0.86603
vn 0.40451 -0.29389 0.86603
vn 0.86603 0.00000 0.50000
vn 0.70063 0.50904 0.50000
vn 0.26762 0.82364 0.50000
vn -0.26762 0.82364 0.50000
vn -0.70063 0.50904 0.50000
vn -0.86603 0.00000 0.50000
vn -0.70063 -0.50904 0.50000
vn -0.26762 -0.82364 0.50000
vn 0.26762 -0.82364 0.50000
vn 0.70063 -0.50904 0.50000
vn 1.00000 0.00000 0.00000
vn 0.80902 0.58779 0.00000
vn 0.30902 0.95106 0.00000
vn -0.30902 0.95106 0.00000
vn -0.80902 0.58779 0.00000
vn -1.00000 0.00000 0.00000
vn -0.80902 -0.58779 0.00000
vn -0.30902 -0.95106 0.00000
vn 0.30902 -0.95106 0.00000
vn 0.80902 -0.58779 0.00000
vn 0.86603 0.00000 -0.50000
vn 0.70063 0.50904 -0.50000
vn 0.26762 0.82364 -0.50000
vn -0.26762 0.82364 -0.50000
vn -0.70063 0.50904 -0.50000
vn -0.86603 0.00000 -0.50000
vn -0.70063 -0.50904 -0.50000
vn -0.26762 -0.82364 -0.50000
vn 0.26762 -0.82364 -0.50000
vn 0.70063 -0.50904 -0.50000
vn 0.50000 0.00000 -0.86603
vn 0.40451 0.29389 -0.86603
vn 0.15451 0.47553 -0.86603
vn -0.15451 0.47553 -0.86603
vn -0.40451 0.29389 -0.86603
vn -0.50000 0.00000 -0.86603
vn -0.40451 -0.29389 -0.86603
vn -0.15451 -0.47553 -0.86603
vn 0.15451 -0.47553 -0.86603
vn 0.40451 -0.29389 -0.86603
vn 0.00000 0.00000 -1.00000
vn 0.00000 0.00000 -1.00000
vn 0.00000 0.00000 -1.00000
vn -0.00000 0.00000 -1.00000
vn -0.00000 0.00000 -1.00000
vn -0.00000 0.00000 -1.00000
vn -0.00000 -0.00000 -1.00000
vn -0.00000 -0.00000 -1.00000
vn 0.00000 -0.00000 -1.00000
vn 0.00000 -0.00000 -1.00000
vn 1.00000 0.00000 0.00000
vn 1.00000 0.00000 0.00000
vn 1.00000 0.00000 0.00000
vn 1.00000 0.00000 0.00000
vn -1.00000 0.00000 0.00000
vn -1.00000 0.00000 0.00000
vn -1.00000 0.00000 0.00000
vn -1.00000 0.00000 0.00000
vn 0.00000 1.00000 0.00000
vn 0.00000 1.00000 0.00000
vn 0.00000 1.00000 0.00000
vn 0.00000 1.00000 0.00000
vn 0.00000 -1.00000 0.00000
vn 0.00000 -1.00000 0.00000
vn 0.00000 -1.00000 0.00000
vn 0.00000 -1.00000 0.00000
vn 0.00000 0.00000 1.00000
vn 0.00000 0.00000 1.00000
vn 0.00000 0.00000 1.00000
vn 0.00000 0.00000 1.00000
vn 0.00000 0.00000 -1.00000
vn 0.00000 0.00000 -1.00000
vn 0.00000 0.00000 -1.00000
vn 0.00000 0.00000 -1.00000
vn 0.97030 0.24192 0.00000
vn 0.97030 0.24192 0.00000
vn 0.97030 0.24192 0.00000
vn 0.97030 0.24192 0.00000
vn -0.97030 -0.24192 0.00000
vn -0.97030 -0.24192 0.00000
vn -0.97030 -0.24192 0.00000
vn -0.97030 -0.24192 0.00000
vn -0.24192 0.97030 0.00000
vn -0.24192 0.97030 0.00000
vn -0.24192 0.97030 0.00000
vn -0.24192 0.97030 0.00000
vn 0.24192 -0.97030 0.00000
vn 0.24192 -0.97030 0.00000
vn 0.24192 -0.97030 0.00000
vn 0.24192 -0.97030 0.00000
vn 0.00000 0.00000 1.00000
vn 0.00000 0.00000 1.00000
vn 0.00000 0.00000 1.00000
vn 0.00000 0.00000 1.00000
vn 0.00000 0.00000 -1.00000
vn 0.00000 0.00000 -1.00000
vn 0.00000 0.00000 -1.00000
vn 0.00000 0.00000 -1.00000
vn 0.97030 -0.24192 0.00000
vn 0.97030 -0.24192 0.00000
vn 0.97030 -0.24192 0.00000
vn 0.97030 -0.24192 0.00000
vn -0.97030 0.24192 0.00000
vn -0.97030 0.24192 0.00000
vn -0.97030 0.24192 0.00000
vn -0.97030 0.24192 0.00000
vn 0.24192 0.97030 0.00000
vn 0.24192 0.97030 0.00000
vn 0.24192 0.97030 0.00000
vn 0.24192 0.97030 0.00000
vn -0.24192 -0.97030 0.00000
vn -0.24192 -0.97030 0.00000
vn -0.24192 -0.97030 0.00000
vn -0.24192 -0.97030 0.00000
vn 0.00000 0.00000 1.00000
vn 0.00000 0.00000 1.00000
vn 0.00000 0.00000 1.00000
vn 0.00000 0.00000 1.00000
vn 0.00000 0.00000 -1.00000
vn 0.00000 0.00000 -1.00000
vn 0.00000 0.00000 -1.00000
vn 0.00000 0.00000 -1.00000
o snake_head_skin
usemtl skin
f 1//1 24//24 23//23
f 2//2 25//25 24//24
f 3//3 26//26 25//25
f 4//4 27//27 26//26
f 5//5 28//28 27//27
f 6//6 29//29 28//28
f 7//7 30//30 29//29
f 8//8 31//31 30//30
f 9//9 32//32 31//31
f 10//10 33//33 32//32
f 11//11 34//34 33//33
f 12//12 35//35 34//34
f 13//13 36//36 35//35
f 14//14 37//37 36//36
f 15//15 38//38 37//37
f 16//16 39//39 38//38
f 17//17 40//40 39//39
f 18//18 41//41 40//40
f 19//19 42//42 41//41
f 20//20 43//43 42//42
f 21//21 44//44 43//43
f 22//22 23//23 44//44
f 23//23 24//24 46//46
f 23//23 46//46 45//45
f 24//24 25//25 47//47
f 24//24 47//47 46//46
f 25//25 26//26 48//48
f 25//25 48//48 47//47
f 26//26 27//27 49//49
f 26//26 49//49 48//48
f 27//27 28//28 50//50
f 27//27 50//50 49//49
f 28//28 29//29 51//51
f 28//28 51//51 50//50
f 29//29 30//30 52//52
f 29//29 52//52 51//51
f 30//30 31//31 53//53
f 30//30 53//53 52//52
f 31//31 32//32 54//54
f 31//31 54//54 53//53
f 32//32 33//33 55//55
f 32//32 55//55 54//54
f 33//33 34//34 56//56
f 33//33 56//56 55//55
f 34//34 35//35 57//57
f 34//34 57//57 56//56
f 35//35 36//36 58//58
f 35//35 58//58 57//57
f 36//36 37//37 59//59
f 36//36 59//59 58//58
f 37//37 38//38 60//60
f 37//37 60//60 59//59
f 38//38 39//39 61//61
f 38//38 61//61 60//60
f 39//39 40//40 62//62
f 39//39 62//62 61//61
f 40//40 41//41 63//63
f 40//40 63//63 62//62
f 41//41 42//42 64//64
f 41//41 64//64 63//63
f 42//42 43//43 65//65
f 42//42 65//65 64//64
f 43//43 44//44 66//66
f 43//43 66//66 65//65
f 44//44 23//23 45//45
f 44//44 45//45 66//66
f 45//45 46//46 68//68
f 45//45 68//68 67//67
f 46//46 47//47 69//69
f 46//46 69//69 68//68
f 47//47 48//48 70//70
f 47//47 70//70 69//69
f 48//48 49//49 71//71
f 48//48 71//71 70//70
f 49//49 50//50 72//72
f 49//49 72//72 71//71
f 50//50 51//51 73//73
f 50//50 73//73 72//72
f 51//51 52//52 74//74
f 51//51 74//74 73//73
f 52//52 53//53 75//75
f 52//52 75//75 74//74
f 53//53 54//54 76//76
f 53//53 76//76 75//75
f 54//54 55//55 77//77
f 54//54 77//77 76//76
f 55//55 56//56 78//78
f 55//55 78//78 77//77
f 56//56 57//57 79//79
f 56//56 79//79 78//78
f 57//57 58//58 80//80
f 57//57 80//80 79//79
f 58//58 59//59 81//81
f 58//58 81//81 80//80
f 59//59 60//60 82//82
f 59//59 82//82 81//81
f 60//60 61//61 83//83
f 60//60 83//83 82//82
f 61//61 62//62 84//84
f 61//61 84//84 83//83
f 62//62 63//63 85//85
f 62//62 85//85 84//84
f 63//63 64//64 86//86
f 63//63 86//86 85//85
f 64//64 65//65 87//87
f 64//64 87//87 86//86
f 65//65 66//66 88//88
f 65//65 88//88 87//87
f 66//66 45//45 67//67
f 66//66 67//67 88//88
f 67//67 68//68 90//90
f 67//67 90//90 89//89
f 68//68 69//69 91//91
f 68//68 91//91 90//90
f 69//69 70//70 92//92
f 69//69 92//92 91//91
f 70//70 71//71 93//93
f 70//70 93//93 92//92
f 71//71 72//72 94//94
f 71//71 94//94 93//93
f 72//72 73//73 95//95
f 72//72 95//95 94//94
f 73//73 74//74 96//96
f 73//73 96//96 95//95
f 74//74 75//75 97//97
f 74//74 97//97 96//96
f 75//75 76//76 98//98
f 75//75 98//98 97//97
f 76//76 77//77 99//99
f 76//76 99//99 98//98
f 77//77 78//78 100//100
f 77//77 100//100 99//99
f 78//78 79//79 101//101
f 78//78 101//101 100//100
f 79//79 80//80 102//102
f 79//79 102//102 101//101
f 80//80 81//81 103//103
f 80//80 103//103 102//102
f 81//81 82//82 104//104
f 81//81 104//104 103//103
f 82//82 83//83 105//105
f 82//82 105//105 104//104
f 83//83 84//84 106//106
f 83//83 106//106 105//105
f 84//84 85//85 107//107
f 84//84 107//107 106//106
f 85//85 86//86 108//108
f 85//85 108//108 107//107
f 86//86 87//87 109//109
f 86//86 109//109 108//108
f 87//87 88//88 110//110
f 87//87 110//110 109//109
f 88//88 67//67 89//89
f 88//88 89//89 110//110
f 89//89 90//90 112//112
f 89//89 112//112 111//111
f 90//90 91//91 113//113
f 90//90 113//113 112//112
f 91//91 92//92 114//114
f 91//91 114//114 113//113
f 92//92 93//93 115//115
f 92//92 115//115 114//114
f 93//93 94//94 116//116
f 93//93 116//116 115//115
f 94//94 95//95 117//117
f 94//94 117//117 116//116
f 95//95 96//96 118//118
f 95//95 118//118 117//117
f 96//96 97//97 119//119
f 96//96 119//119 118//118
f 97//97 98//98 120//120
f 97//97 120//120 119//119
f 98//98 99//99 121//121
f 98//98 121//121 120//120
f 99//99 100//100 122//122
f 99//99 122//122 121//121
f 100//100 101//101 123//123
f 100//100 123//123 122//122
f 101//101 102//102 124//124
f 101//101 124//124 123//123
f 102//102 103//103 125//125
f 102//102 125//125 124//124
f 103//103 104//104 126//126
f 103//103 126//126 125//125
f 104//104 105//105 127//127
f 104//104 127//127 126//126
f 105//105 106//106 128//128
f 105//105 128//128 127//127
f 106//106 107//107 129//129
f 106//106 129//129 128//128
f 107//107 108//108 130//130
f 107//107 130//130 129//129
f 108//108 109//109 131//131
f 108//108 131//131 130//130
f 109//109 110//110 132//132
f 109//109 132//132 131//131
f 110//110 89//89 111//111
f 110//110 111//111 132//132
f 111//111 112//112 134//134
f 111//111 134//134 133//133
f 112//112 113//113 135//135
f 112//112 135//135 134//134
f 113//113 114//114 136//136
f 113//113 136//136 135//135
f 114//114 115//115 137//137
f 114//114 137//137 136//136
f 115//115 116//116 138//138
f 115//115 138//138 137//137
f 116//116 117//117 139//139
f 116//116 139//139 138//138
f 117//117 118//118 140//140
f 117//117 140//140 139//139
f 118//118 119//119 141//141
f 118//118 141//141 140//140
f 119//119 120//120 142//142
f 119//119 142//142 141//141
f 120//120 121//121 143//143
f 120//120 143//143 142//142
f 121//121 122//122 144//144
f 121//121 144//144 143//143
f 122//122 123//123 145//145
f 122//122 145//145 144//144
f 123//123 124//124 146//146
f 123//123 146//146 145//145
f 124//124 125//125 147//147
f 124//124 147//147 146//146
f 125//125 126//126 148//148
f 125//125 148//148 147//147
f 126//126 127//127 149//149
f 126//126 149//149 148//148
f 127//127 128//128 150//150
f 127//127 150//150 149//149
f 128//128 129//129 151//151
f 128//128 151//151 150//150
f 129//129 130//130 152//152
f 129//129 152//152 151//151
f 130//130 131//131 153//153
f 130//130 153//153 152//152
f 131//131 132//132 154//154
f 131//131 154//154 153//153
f 132//132 111//111 133//133
f 132//132 133//133 154//154
f 133//133 134//134 156//156
f 133//133 156//156 155//155
f 134//134 135//135 157//157
f 134//134 157//157 156//156
f 135//135 136//136 158//158
f 135//135 158//158 157//157
f 136//136 137//137 159//159
f 136//136 159//159 158//158
f 137//137 138//138 160//160
f 137//137 160//160 159//159
f 138//138 139//139 161//161
f 138//138 161//161 160//160
f 139//139 140//140 162//162
f 139//139 162//162 161//161
f 140//140 141//141 163//163
f 140//140 163//163 162//162
f 141//141 142//142 164//164
f 141//141 164//164 163//163
f 142//142 143//143 165//165
f 142//142 165//165 164//164
f 143//143 144//144 166//166
f 143//143 166//166 165//165
f 144//144 145//145 167//167
f 144//144 167//167 166//166
f 145//145 146//146 168//168
f 145//145 168//168 167//167
f 146//146 147//147 169//169
f 146//146 169//169 168//168
f 147//147 148//148 170//170
f 147//147 170//170 169//169
f 148//148 149//149 171//171
f 148//148 171//171 170//170
f 149//149 150//150 172//172
f 149//149 172//172 171//171
f 150//150 151//151 173//173
f 150//150 173//173 172//172
f 151//151 152//152 174//174
f 151//151 174//174 173//173
f 152//152 153//153 175//175
f 152//152 175//175 174//174
f 153//153 154//154 176//176
f 153//153 176//176 175//175
f 154//154 133//133 155//155
f 154//154 155//155 176//176
f 155//155 156//156 178//178
f 155//155 178//178 177//177
f 156//156 157//157 179//179
f 156//156 179//179 178//178
f 157//157 158//158 180//180
f 157//157 180//180 179//179
f 158//158 159//159 181//181
f 158//158 181//181 180//180
f 159//159 160//160 182//182
f 159//159 182//182 181//181
f 160//160 161//161 183//183
f 160//160 183//183 182//182
f 161//161 162//162 184//184
f 161//161 184//184 183//183
f 162//162 163//163 185//185
f 162//162 185//185 184//184
f 163//163 164//164 186//186
f 163//163 186//186 185//185
f 164//164 165//165 187//187
f 164//164 187//187 186//186
f 165//165 166//166 188//188
f 165//165 188//188 187//187
f 166//166 167//167 189//189
f 166//166 189//189 188//188
f 167//167 168//168 190//190
f 167//167 190//190 189//189
f 168//168 169//169 191//191
f 168//168 191//191 190//190
f 169//169 170//170 192//192
f 169//169 192//192 191//191
f 170//170 171//171 193//193
f 170//170 193//193 192//192
f 171//171 172//172 194//194
f 171//171 194//194 193//193
f 172//172 173//173 195//195
f 172//172 195//195 194//194
f 173//173 174//174 196//196
f 173//173 196//196 195//195
f 174//174 175//175 197//197
f 174//174 197//197 196//196
f 175//175 176//176 198//198
f 175//175 198//198 197//197
f 176//176 155//155 177//177
f 176//176 177//177 198//198
f 177//177 178//178 200//200
f 177//177 200//200 199//199
f 178//178 179//179 201//201
f 178//178 201//201 200//200
f 179//179 180//180 202//202
f 179//179 202//202 201//201
f 180//180 181//181 203//203
f 180//180 203//203 202//202
f 181//181 182//182 204//204
f 181//181 204//204 203//203
f 182//182 183//183 205//205
f 182//182 205//205 204//204
f 183//183 184//184 206//206
f 183//183 206//206 205//205
f 184//184 185//185 207//207
f 184//184 207//207 206//206
f 185//185 186//186 208//208
f 185//185 208//208 207//207
f 186//186 187//187 209//209
f 186//186 209//209 208//208
f 187//187 188//188 210//210
f 187//187 210//210 209//209
f 188//188 189//189 211//211
f 188//188 211//211 210//210
f 189//189 190//190 212//212
f 189//189 212//212 211//211
f 190//190 191//191 213//213
f 190//190 213//213 212//212
f 191//191 192//192 214//214
f 191//191 214//214 213//213
f 192//192 193//193 215//215
f 192//192 215//215 214//214
f 193//193 194//194 216//216
f 193//193 216//216 215//215
f 194//194 195//195 217//217
f 194//194 217//217 216//216
f 195//195 196//196 218//218
f 195//195 218//218 217//217
f 196//196 197//197 219//219
f 196//196 219//219 218//218
f 197//197 198//198 220//220
f 197//197 220//220 219//219
f 198//198 177//177 199//199
f 198//198 199//199 220//220
f 199//199 200//200 222//222
f 199//199 222//222 221//221
f 200//200 201//201 223//223
f 200//200 223//223 222//222
f 201//201 202//202 224//224
f 201//201 224//224 223//223
f 202//202 203//203 225//225
f 202//202 225//225 224//224
f 203//203 204//204 226//226
f 203//203 226//226 225//225
f 204//204 205//205 227//227
f 204//204 227//227 226//226
f 205//205 206//206 228//228
f 205//205 228//228 227//227
f 206//206 207//207 229//229
f 206//206 229//229 228//228
f 207//207 208//208 230//230
f 207//207 230//230 229//229
f 208//208 209//209 231//231
f 208//208 231//231 230//230
f 209//209 210//210 232//232
f 209//209 232//232 231//231
f 210//210 211//211 233//233
f 210//210 233//233 232//232
f 211//211 212//212 234//234
f 211//211 234//234 233//233
f 212//212 213//213 235//235
f 212//212 235//235 234//234
f 213//213 214//214 236//236
f 213//213 236//236 235//235
f 214//214 215//215 237//237
f 214//214 237//237 236//236
f 215//215 216//216 238//238
f 215//215 238//238 237//237
f 216//216 217//217 239//239
f 216//216 239//239 238//238
f 217//217 218//218 240//240
f 217//217 240//240 239//239
f 218//218 219//219 241//241
f 218//218 241//241 240//240
f 219//219 220//220 242//242
f 219//219 242//242 241//241
f 220//220 199//199 221//221
f 220//220 221//221 242//242
f 221//221 222//222 244//244
f 221//221 244//244 243//243
f 222//222 223//223 245//245
f 222//222 245//245 244//244
f 223//223 224//224 246//246
f 223//223 246//246 245//245
f 224//224 225//225 247//247
f 224//224 247//247 246//246
f 225//225 226//226 248//248
f 225//225 248//248 247//247
f 226//226 227//227 249//249
f 226//226 249//249 248//248
f 227//227 228//228 250//250
f 227//227 250//250 249//249
f 228//228 229//229 251//251
f 228//228 251//251 250//250
f 229//229 230//230 252//252
f 229//229 252//252 251//251
f 230//230 231//231 253//253
f 230//230 253//253 252//252
f 231//231 232//232 254//254
f 231//231 254//254 253//253
f 232//232 233//233 255//255
f 232//232 255//255 254//254
f 233//233 234//234 256//256
f 233//233 256//256 255//255
f 234//234 235//235 257//257
f 234//234 257//257 256//256
f 235//235 236//236 258//258
f 235//235 258//258 257//257
f 236//236 237//237 259//259
f 236//236 259//259 258//258
f 237//237 238//238 260//260
f 237//237 260//260 259//259
f 238//238 239//239 261//261
f 238//238 261//261 260//260
f 239//239 240//240 262//262
f 239//239 262//262 261//261
f 240//240 241//241 263//263
f 240//240 263//263 262//262
f 241//241 242//242 264//264
f 241//241 264//264 263//263
f 242//242 221//221 243//243
f 242//242 243//243 264//264
f 243//243 244//244 266//266
f 243//243 266//266 265//265
f 244//244 245//245 267//267
f 244//244 267//267 266//266
f 245//245 246//246 268//268
f 245//245 268//268 267//267
f 246//246 247//247 269//269
f 246//246 269//269 268//268
f 247//247 248//248 270//270
f 247//247 270//270 269//269
f 248//248 249//249 271//271
f 248//248 271//271 270//270
f 249//249 250//250 272//272
f 249//249 272//272 271//271
f 250//250 251//251 273//273
f 250//250 273//273 272//272
f 251//251 252//252 274//274
f 251//251 274//274 273//273
f 252//252 253//253 275//275
f 252//252 275//275 274//274
f 253//253 254//254 276//276
f 253//253 276//276 275//275
f 254//254 255//255 277//277
f 254//254 277//277 276//276
f 255//255 256//256 278//278
f 255//255 278//278 277//277
f 256//256 257//257 279//279
f 256//256 279//279 278//278
f 257//257 258//258 280//280
f 257//257 280//280 279//279
f 258//258 259//259 281//281
f 258//258 281//281 280//280
f 259//259 260//260 282//282
f 259//259 282//282 281//281
f 260//260 261//261 283//283
f 260//260 283//283 282//282
f 261//261 262//262 284//284
f 261//261 284//284 283//283
f 262//262 263//263 285//285
f 262//262 285//285 284//284
f 263//263 264//264 286//286
f 263//263 286//286 285//285
f 264//264 243//243 265//265
f 264//264 265//265 286//286
f 265//265 266//266 288//288
f 265//265 288//288 287//287
f 266//266 267//267 289//289
f 266//266 289//289 288//288
f 267//267 268//268 290//290
f 267//267 290//290 289//289
f 268//268 269//269 291//291
f 268//268 291//291 290//290
f 269//269 270//270 292//292
f 269//269 292//292 291//291
f 270//270 271//271 293//293
f 270//270 293//293 292//292
f 271//271 272//272 294//294
f 271//271 294//294 293//293
f 272//272 273//273 295//295
f 272//272 295//295 294//294
f 273//273 274//274 296//296
f 273//273 296//296 295//295
f 274//274 275//275 297//297
f 274//274 297//297 296//296
f 275//275 276//276 298//298
f 275//275 298//298 297//297
f 276//276 277//277 299//299
f 276//276 299//299 298//298
f 277//277 278//278 300//300
f 277//277 300//300 299//299
f 278//278 279//279 301//301
f 278//278 301//301 300//300
f 279//279 280//280 302//302
f 279//279 302//302 301//301
f 280//280 281//281 303//303
f 280//280 303//303 302//302
f 281//281 282//282 304//304
f 281//281 304//304 303//303
f 282//282 283//283 305//305
f 282//282 305//305 304//304
f 283//283 284//284 306//306
f 283//283 306//306 305//305
f 284//284 285//285 307//307
f 284//284 307//307 306//306
f 285//285 286//286 308//308
f 285//285 308//308 307//307
f 286//286 265//265 287//287
f 286//286 287//287 308//308
f 287//287 288//288 310//310
f 288//288 289//289 311//311
f 289//289 290//290 312//312
f 290//290 291//291 313//313
f 291//291 292//292 314//314
f 292//292 293//293 315//315
f 293//293 294//294 316//316
f 294//294 295//295 317//317
f 295//295 296//296 318//318
f 296//296 297//297 319//319
f 297//297 298//298 320//320
f 298//298 299//299 321//321
f 299//299 300//300 322//322
f 300//300 301//301 323//323
f 301//301 302//302 324//324
f 302//302 303//303 325//325
f 303//303 304//304 326//326
f 304//304 305//305 327//327
f 305//305 306//306 328//328
f 306//306 307//307 329//329
f 307//307 308//308 330//330
f 308//308 287//287 309//309
o snake_head_eye_white
usemtl eye_white
f 331//331 344//344 343//343
f 332//332 345//345 344//344
f 333//333 346//346 345//345
f 334//334 347//347 346//346
f 335//335 348//348 347//347
f 336//336 349//349 348//348
f 337//337 350//350 349//349
f 338//338 351//351 350//350
f 339//339 352//352 351//351
f 340//340 353//353 352//352
f 341//341 354//354 353//353
f 342//342 343//343 354//354
f 343//343 344//344 356//356
f 343//343 356//356 355//355
f 344//344 345//345 357//357
f 344//344 357//357 356//356
f 345//345 346//346 358//358
f 345//345 358//358 357//357
f 346//346 347//347 359//359
f 346//346 359//359 358//358
f 347//347 348//348 360//360
f 347//347 360//360 359//359
f 348//348 349//349 361//361
f 348//348 361//361 360//360
f 349//349 350//350 362//362
f 349//349 362//362 361//361
f 350//350 351//351 363//363
f 350//350 363//363 362//362
f 351//351 352//352 364//364
f 351//351 364//364 363//363
f 352//352 353//353 365//365
f 352//352 365//365 364//364
f 353//353 354//354 366//366
f 353//353 366//366 365//365
f 354//354 343//343 355//355
f 354//354 355//355 366//366
f 355//355 356//356 368//368
f 355//355 368//368 367//367
f 356//356 357//357 369//369
f 356//356 369//369 368//368
f 357//357 358//358 370//370
f 357//357 370//370 369//369
f 358//358 359//359 371//371
f 358//358 371//371 370//370
f 359//359 360//360 372//372
f 359//359 372//372 371//371
f 360//360 361//361 373//373
f 360//360 373//373 372//372
f 361//361 362//362 374//374
f 361//361 374//374 373//373
f 362//362 363//363 375//375
f 362//362 375//375 374//374
f 363//363 364//364 376//376
f 363//363 376//376 375//375
f 364//364 365//365 377//377
f 364//364 377//377 376//376
f 365//365 366//366 378//378
f 365//365 378//378 377//377
f 366//366 355//355 367//367
f 366//366 367//367 378//378
f 367//367 368//368 380//380
f 367//367 380//380 379//379
f 368//368 369//369 381//381
f 368//368 381//381 380//380
f 369//369 370//370 382//382
f 369//369 382//382 381//381
f 370//370 371//371 383//383
f 370//370 383//383 382//382
f 371//371 372//372 384//384
f 371//371 384//384 383//383
f 372//372 373//373 385//385
f 372//372 385//385 384//384
f 373//373 374//374 386//386
f 373//373 386//386 385//385
f 374//374 375//375 387//387
f 374//374 387//387 386//386
f 375//375 376//376 388//388
f 375//375 388//388 387//387
f 376//376 377//377 389//389
f 376//376 389//389 388//388
f 377//377 378//378 390//390
f 377//377 390//390 389//389
f 378//378 367//367 379//379
f 378//378 379//379 390//390
f 379//379 380//380 392//392
f 379//379 392//392 391//391
f 380//380 381//381 393//393
f 380//380 393//393 392//392
f 381//381 382//382 394//394
f 381//381 394//394 393//393
f 382//382 383//383 395//395
f 382//382 395//395 394//394
f 383//383 384//384 396//396
f 383//383 396//396 395//395
f 384//384 385//385 397//397
f 384//384 397//397 396//396
f 385//385 386//386 398//398
f 385//385 398//398 397//397
f 386//386 387//387 399//399
f 386//386 399//399 398//398
f 387//387 388//388 400//400
f 387//387 400//400 399//399
f 388//388 389//389 401//401
f 388//388 401//401 400//400
f 389//389 390//390 402//402
f 389//389 402//402 401//401
f 390//390 379//379 391//391
f 390//390 391//391 402//402
f 391//391 392//392 404//404
f 391//391 404//404 403//403
f 392//392 393//393 405//405
f 392//392 405//405 404//404
f 393//393 394//394 406//406
f 393//393 406//406 405//405
f 394//394 395//395 407//407
f 394//394 407//407 406//406
f 395//395 396//396 408//408
f 395//395 408//408 407//407
f 396//396 397//397 409//409
f 396//396 409//409 408//408
f 397//397 398//398 410//410
f 397//397 410//410 409//409
f 398//398 399//399 411//411
f 398//398 411//411 410//410
f 399//399 400//400 412//412
f 399//399 412//412 411//411
f 400//400 401//401 413//413
f 400//400 413//413 412//412
f 401//401 402//402 414//414
f 401//401 414//414 413//413
f 402//402 391//391 403//403
f 402//402 403//403 414//414
f 403//403 404//404 416//416
f 403//403 416//416 415//415
f 404//404 405//405 417//417
f 404//404 417//417 416//416
f 405//405 406//406 418//418
f 405//405 418//418 417//417
f 406//406 407//407 419//419
f 406//406 419//419 418//418
f 407//407 408//408 420//420
f 407//407 420//420 419//419
f 408//408 409//409 421//421
f 408//408 421//421 420//420
f 409//409 410//410 422//422
f 409//409 422//422 421//421
f 410//410 411//411 423//423
f 410//410 423//423 422//422
f 411//411 412//412 424//424
f 411//411 424//424 423//423
f 412//412 413//413 425//425
f 412//412 425//425 424//424
f 413//413 414//414 426//426
f 413//413 426//426 425//425
f 414//414 403//403 415//415
f 414//414 415//415 426//426
f 415//415 416//416 428//428
f 416//416 417//417 429//429
f 417//417 418//418 430//430
f 418//418 419//419 431//431
f 419//419 420//420 432//432
f 420//420 421//421 433//433
f 421//421 422//422 434//434
f 422//422 423//423 435//435
f 423//423 424//424 436//436
f 424//424 425//425 437//437
f 425//425 426//426 438//438
f 426//426 415//415 427//427
f 509//509 522//522 521//521
f 510//510 523//523 522//522
f 511//511 524//524 523//523
f 512//512 525//525 524//524
f 513//513 526//526 525//525
f 514//514 527//527 526//526
f 515//515 528//528 527//527
f 516//516 529//529 528//528
f 517//517 530//530 529//529
f 518//518 531//531 530//530
f 519//519 532//532 531//531
f 520//520 521//521 532//532
f 521//521 522//522 534//534
f 521//521 534//534 533//533
f 522//522 523//523 535//535
f 522//522 535//535 534//534
f 523//523 524//524 536//536
f 523//523 536//536 535//535
f 524//524 525//525 537//537
f 524//524 537//537 536//536
f 525//525 526//526 538//538
f 525//525 538//538 537//537
f 526//526 527//527 539//539
f 526//526 539//539 538//538
f 527//527 528//528 540//540
f 527//527 540//540 539//539
f 528//528 529//529 541//541
f 528//528 541//541 540//540
f 529//529 530//530 542//542
f 529//529 542//542 541//541
f 530//530 531//531 543//543
f 530//530 543//543 542//542
f 531//531 532//532 544//544
f 531//531 544//544 543//543
f 532//532 521//521 533//533
f 532//532 533//533 544//544
f 533//533 534//534 546//546
f 533//533 546//546 545//545
f 534//534 535//535 547//547
f 534//534 547//547 546//546
f 535//535 536//536 548//548
f 535//535 548//548 547//547
f 536//536 537//537 549//549
f 536//536 549//549 548//548
f 537//537 538//538 550//550
f 537//537 550//550 549//549
f 538//538 539//539 551//551
f 538//538 551//551 550//550
f 539//539 540//540 552//552
f 539//539 552//552 551//551
f 540//540 541//541 553//553
f 540//540 553//553 552//552
f 541//541 542//542 554//554
f 541//541 554//554 553//553
f 542//542 543//543 555//555
f 542//542 555//555 554//554
f 543//543 544//544 556//556
f 543//543 556//556 555//555
f 544//544 533//533 545//545
f 544//544 545//545 556//556
f 545//545 546//546 558//558
f 545//545 558//558 557//557
f 546//546 547//547 559//559
f 546//546 559//559 558//558
f 547//547 548//548 560//560
f 547//547 560//560 559//559
f 548//548 549//549 561//561
f 548//548 561//561 560//560
f 549//549 550//550 562//562
f 549//549 562//562 561//561
f 550//550 551//551 563//563
f 550//550 563//563 562//562
f 551//551 552//552 564//564
f 551//551 564//564 563//563
f 552//552 553//553 565//565
f 552//552 565//565 564//564
f 553//553 554//554 566//566
f 553//553 566//566 565//565
f 554//554 555//555 567//567
f 554//554 567//567 566//566
f 555//555 556//556 568//568
f 555//555 568//568 567//567
f 556//556 545//545 557//557
f 556//556 557//557 568//568
f 557//557 558//558 570//570
f 557//557 570//570 569//569
f 558//558 559//559 571//571
f 558//558 571//571 570//570
f 559//559 560//560 572//572
f 559//559 572//572 571//571
f 560//560 561//561 573//573
f 560//560 573//573 572//572
f 561//561 562//562 574//574
f 561//561 574//574 573//573
f 562//562 563//563 575//575
f 562//562 575//575 574//574
f 563//563 564//564 576//576
f 563//563 576//576 575//575
f 564//564 565//565 577//577
f 564//564 577//577 576//576
f 565//565 566//566 578//578
f 565//565 578//578 577//577
f 566//566 567//567 579//579
f 566//566 579//579 578//578
f 567//567 568//568 580//580
f 567//567 580//580 579//579
f 568//568 557//557 569//569
f 568//568 569//569 580//580
f 569//569 570//570 582//582
f 569//569 582//582 581//581
f 570//570 571//571 583//583
f 570//570 583//583 582//582
f 571//571 572//572 584//584
f 571//571 584//584 583//583
f 572//572 573//573 585//585
f 572//572 585//585 584//584
f 573//573 574//574 586//586
f 573//573 586//586 585//585
f 574//574 575//575 587//587
f 574//574 587//587 586//586
f 575//575 576//576 588//588
f 575//575 588//588 587//587
f 576//576 577//577 589//589
f 576//576 589//589 588//588
f 577//577 578//578 590//590
f 577//577 590//590 589//589
f 578//578 579//579 591//591
f 578//578 591//591 590//590
f 579//579 580//580 592//592
f 579//579 592//592 591//591
f 580//580 569//569 581//581
f 580//580 581//581 592//592
f 581//581 582//582 594//594
f 581//581 594//594 593//593
f 582//582 583//583 595//595
f 582//582 595//595 594//594
f 583//583 584//584 596//596
f 583//583 596//596 595//595
f 584//584 585//585 597//597
f 584//584 597//597 596//596
f 585//585 586//586 598//598
f 585//585 598//598 597//597
f 586//586 587//587 599//599
f 586//586 599//599 598//598
f 587//587 588//588 600//600
f 587//587 600//600 599//599
f 588//588 589//589 601//601
f 588//588 601//601 600//600
f 589//589 590//590 602//602
f 589//589 602//602 601//601
f 590//590 591//591 603//603
f 590//590 603//603 602//602
f 591//591 592//592 604//604
f 591//591 604//604 603//603
f 592//592 581//581 593//593
f 592//592 593//593 604//604
f 593//593 594//594 606//606
f 594//594 595//595 607//607
f 595//595 596//596 608//608
f 596//596 597//597 609//609
f 597//597 598//598 610//610
f 598//598 599//599 611//611
f 599//599 600//600 612//612
f 600//600 601//601 613//613
f 601//601 602//602 614//614
f 602//602 603//603 615//615
f 603//603 604//604 616//616
f 604//604 593//593 605//605
o snake_head_pupil
usemtl pupil
f 439//439 450//450 449//449
f 440//440 451//451 450//450
f 441//441 452//452 451//451
f 442//442 453//453 452//452
f 443//443 454//454 453//453
f 444//444 455//455 454//454
f 445//445 456//456 455//455
f 446//446 457//457 456//456
f 447//447 458//458 457//457
f 448//448 449//449 458//458
f 449//449 450//450 460//460
f 449//449 460//460 459//459
f 450//450 451//451 461//461
f 450//450 461//461 460//460
f 451//451 452//452 462//462
f 451//451 462//462 461//461
f 452//452 453//453 463//463
f 452//452 463//463 462//462
f 453//453 454//454 464//464
f 453//453 464//464 463//463
f 454//454 455//455 465//465
f 454//454 465//465 464//464
f 455//455 456//456 466//466
f 455//455 466//466 465//465
f 456//456 457//457 467//467
f 456//456 467//467 466//466
f 457//457 458//458 468//468
f 457//457 468//468 467//467
f 458//458 449//449 459//459
f 458//458 459//459 468//468
f 459//459 460//460 470//470
f 459//459 470//470 469//469
f 460//460 461//461 471//471
f 460//460 471//471 470//470
f 461//461 462//462 472//472
f 461//461 472//472 471//471
f 462//462 463//463 473//473
f 462//462 473//473 472//472
f 463//463 464//464 474//474
f 463//463 474//474 473//473
f 464//464 465//465 475//475
f 464//464 475//475 474//474
f 465//465 466//466 476//476
f 465//465 476//476 475//475
f 466//466 467//467 477//477
f 466//466 477//477 476//476
f 467//467 468//468 478//478
f 467//467 478//478 477//477
f 468//468 459//459 469//469
f 468//468 469//469 478//478
f 469//469 470//470 480//480
f 469//469 480//480 479//479
f 470//470 471//471 481//481
f 470//470 481//481 480//480
f 471//471 472//472 482//482
f 471//471 482//482 481//481
f 472//472 473//473 483//483
f 472//472 483//483 482//482
f 473//473 474//474 484//484
f 473//473 484//484 483//483
f 474//474 475//475 485//485
f 474//474 485//485 484//484
f 475//475 476//476 486//486
f 475//475 486//486 485//485
f 476//476 477//477 487//487
f 476//476 487//487 486//486
f 477//477 478//478 488//488
f 477//477 488//488 487//487
f 478//478 469//469 479//479
f 478//478 479//479 488//488
f 479//479 480//480 490//490
f 479//479 490//490 489//489
f 480//480 481//481 491//491
f 480//480 491//491 490//490
f 481//481 482//482 492//492
f 481//481 492//492 491//491
f 482//482 483//483 493//493
f 482//482 493//493 492//492
f 483//483 484//484 494//494
f 483//483 494//494 493//493
f 484//484 485//485 495//495
f 484//484 495//495 494//494
f 485//485 486//486 496//496
f 485//485 496//496 495//495
f 486//486 487//487 497//497
f 486//486 497//497 496//496
f 487//487 488//488 498//498
f 487//487 498//498 497//497
f 488//488 479//479 489//489
f 488//488 489//489 498//498
f 489//489 490//490 500//500
f 490//490 491//491 501//501
f 491//491 492//492 502//502
f 492//492 493//493 503//503
f 493//493 494//494 504//504
f 494//494 495//495 505//505
f 495//495 496//496 506//506
f 496//496 497//497 507//507
f 497//497 498//498 508//508
f 498//498 489//489 499//499
f 617//617 628//628 627//627
f 618//618 629//629 628//628
f 619//619 630//630 629//629
f 620//620 631//631 630//630
f 621//621 632//632 631//631
f 622//622 633//633 632//632
f 623//623 634//634 633//633
f 624//624 635//635 634//634
f 625//625 636//636 635//635
f 626//626 627//627 636//636
f 627//627 628//628 638//638
f 627//627 638//638 637//637
f 628//628 629//629 639//639
f 628//628 639//639 638//638
f 629//629 630//630 640//640
f 629//629 640//640 639//639
f 630//630 631//631 641//641
f 630//630 641//641 640//640
f 631//631 632//632 642//642
f 631//631 642//642 641//641
f 632//632 633//633 643//643
f 632//632 643//643 642//642
f 633//633 634//634 644//644
f 633//633 644//644 643//643
f 634//634 635//635 645//645
f 634//634 645//645 644//644
f 635//635 636//636 646//646
f 635//635 646//646 645//645
f 636//636 627//627 637//637
f 636//636 637//637 646//646
f 637//637 638//638 648//648
f 637//637 648//648 647//647
f 638//638 639//639 649//649
f 638//638 649//649 648//648
f 639//639 640//640 650//650
f 639//639 650//650 649//649
f 640//640 641//641 651//651
f 640//640 651//651 650//650
f 641//641 642//642 652//652
f 641//641 652//652 651//651
f 642//642 643//643 653//653
f 642//642 653//653 652//652
f 643//643 644//644 654//654
f 643//643 654//654 653//653
f 644//644 645//645 655//655
f 644//644 655//655 654//654
f 645//645 646//646 656//656
f 645//645 656//656 655//655
f 646//646 637//637 647//647
f 646//646 647//647 656//656
f 647//647 648//648 658//658
f 647//647 658//658 657//657
f 648//648 649//649 659//659
f 648//648 659//659 658//658
f 649//649 650//650 660//660
f 649//649 660//660 659//659
f 650//650 651//651 661//661
f 650//650 661//661 660//660
f 651//651 652//652 662//662
f 651//651 662//662 661//661
f 652//652 653//653 663//663
f 652//652 663//663 662//662
f 653//653 654//654 664//664
f 653//653 664//664 663//663
f 654//654 655//655 665//665
f 654//654 665//665 664//664
f 655//655 656//656 666//666
f 655//655 666//666 665//665
f 656//656 647//647 657//657
f 656//656 657//657 666//666
f 657//657 658//658 668//668
f 657//657 668//668 667//667
f 658//658 659//659 669//669
f 658//658 669//669 668//668
f 659//659 660//660 670//670
f 659//659 670//670 669//669
f 660//660 661//661 671//671
f 660//660 671//671 670//670
f 661//661 662//662 672//672
f 661//661 672//672 671//671
f 662//662 663//663 673//673
f 662//662 673//673 672//672
f 663//663 664//664 674//674
f 663//663 674//674 673//673
f 664//664 665//665 675//675
f 664//664 675//675 674//674
f 665//665 666//666 676//676
f 665//665 676//676 675//675
f 666//666 657//657 667//667
f 666//666 667//667 676//676
f 667//667 668//668 678//678
f 668//668 669//669 679//679
f 669//669 670//670 680//680
f 670//670 671//671 681//681
f 671//671 672//672 682//682
f 672//672 673//673 683//683
f 673//673 674//674 684//684
f 674//674 675//675 685//685
f 675//675 676//676 686//686
f 676//676 667//667 677//677
o snake_head_tongue
usemtl tongue
f 687//687 688//688 689//689
f 687//687 689//689 690//690
f 691//691 692//692 693//693
f 691//691 693//693 694//694
f 695//695 696//696 697//697
f 695//695 697//697 698//698
f 699//699 700//700 701//701
f 699//699 701//701 702//702
f 703//703 704//704 705//705
f 703//703 705//705 706//706
f 707//707 708//708 709//709
f 707//707 709//709 710//710
f 711//711 712//712 713//713
f 711//711 713//713 714//714
f 715//715 716//716 717//717
f 715//715 717//717 718//718
f 719//719 720//720 721//721
f 719//719 721//721 722//722
f 723//723 724//724 725//725
f 723//723 725//725 726//726
f 727//727 728//728 729//729
f 727//727 729//729 730//730
f 731//731 732//732 733//733
f 731//731 733//733 734//734
f 735//735 736//736 737//737
f 735//735 737//737 738//738
f 739//739 740//740 741//741
f 739//739 741//741 742//742
f 743//743 744//744 745//745
f 743//743 745//745 746//746
f 747//747 748//748 749//749
f 747//747 749//749 750//750
f 751//751 752//752 753//753
f 751//751 753//753 754//754
f 755//755 756//756 757//757
f 755//755 757//757 758//758
